<?xml version="1.0" encoding="utf-8"?>
<!-- Generator: Adobe Illustrator 16.0.0, SVG Export Plug-In . SVG Version: 6.00 Build 0)  -->
<!DOCTYPE svg PUBLIC "-//W3C//DTD SVG 1.1//EN" "http://www.w3.org/Graphics/SVG/1.1/DTD/svg11.dtd">
<svg version="1.1" id="Capa_1" xmlns="http://www.w3.org/2000/svg" xmlns:xlink="http://www.w3.org/1999/xlink" x="0px" y="0px"
	 width="209.547px" height="209.548px" viewBox="0 0 209.547 209.548" enable-background="new 0 0 209.547 209.548"
	 xml:space="preserve">
<g>
	<circle fill="#09488F" cx="104.773" cy="104.773" r="104.773"/>
	<circle fill="#FA6300" cx="104.773" cy="104.773" r="86.739"/>
	<g>
		<defs>
			<circle id="SVGID_1_" cx="104.773" cy="104.773" r="86.739"/>
		</defs>
		<clipPath id="SVGID_2_">
			<use xlink:href="#SVGID_1_"  overflow="visible"/>
		</clipPath>
		<g clip-path="url(#SVGID_2_)">
			<g>
				<path fill="#C5A771" d="M243.668,280.396l0.008,0.131l0.133,0.011c0.629,0.046,1.271,0.214,1.91,0.496l0.084,0.04l0.07-0.06
					c1.007-0.835,2.176-1.259,3.473-1.259c1.672,0,3.08,0.713,3.5,0.951l-0.021,0.037l0.217,0.201
					c1.002-0.766,2.396-1.205,3.831-1.205c0.38,0,0.753,0.031,1.108,0.092c1.314,0.228,2.305,0.83,2.783,1.699l0.068,0.125
					l0.129-0.062c0.518-0.254,1.432-0.558,2.445-0.652l0.142-0.014l-0.005-0.142c-0.562-13.921-3.922-32.454-5.619-40.31
					c-1.176-5.446-4.527-8.755-7.49-11.679c-1.974-1.948-3.84-3.79-4.842-6.029c-2.936-6.563-7.092-20.199-9.953-38.775
					c-0.379-2.468-0.744-4.873-1.098-7.207l-0.158-1.027c-2.426-16.004-4.346-28.644-6.783-36.148
					c-2.758-8.484-11.922-24.723-21.281-31.888c-6.182-4.731-11.896-6.937-17.982-6.937c-1.502,0-3.021,0.129-4.785,0.404
					c-2.818,0.445-5.296,1.04-7.922,1.671c-3.516,0.845-7.15,1.719-12.244,2.423c-1.557,0.214-3.227,0.323-4.959,0.323
					c-4.824,0-9.416-0.81-13.48-1.527c-2.008-0.354-3.905-0.689-5.504-0.854c-1.321-0.137-3.005-0.207-5.009-0.207
					c-3.92,0-8.085,0.26-10.217,0.414l-0.047,0.289c4.961,2.102,7.541,4.526,10.205,8.593c-1.604-1.935-4.122-4.577-7.245-6.525
					c-3.613-2.254-8.894-3.725-13.09-4.756l-0.278-0.068l0.102,0.267c1.51,3.984,2.723,7.486,3.678,10.641
					c-0.742-1.672-1.763-4.029-2.273-5.484c-1.398-4-2.812-7.57-3.843-10.178c-0.535-1.353-0.913-2.387-1.125-3.07l-0.088-0.282
					l-0.775,1.034c-2.423,3.244-4.097,5.371-5.24,5.371c-0.85,0-1.675-0.407-2.451-1.208c-1.182-1.222-2.168-3.271-2.851-5.927
					l-0.057-0.219l-0.18,0.136c-3.175,2.407-6.718,3.966-8.82,4.446c-2.447,0.559-5.46,1.295-7.059,2.038
					c-1.575,0.735-6.107,3.568-8.678,5.251c-3.752,2.459-7.299,4.781-8.956,5.443c-2.517,1.01-5.859,1.394-7.179,1.512l4.394,0.644
					l-4.835,1.948c-0.414,1.072-2.718,0.02-2.718,0.02l0.239,5.199c1.522,7.743,4.994,19.861,6.503,24.997
					c-2.353-5.901-4.543-14.438-6.042-20.95l-0.292-0.005c-1.066,3.737-6.458,22.737-7.914,29.635
					c-1.647,7.796-1.013,19.23,0.517,25.353c0.684,2.73,1.835,6.146,3.065,9.786c1.582,4.688,3.218,9.538,4.121,13.698
					c1.11,5.112,1.163,11.267,1.205,16.237c0.018,2.261,0.034,4.216,0.147,5.741c0.086,1.207,0.413,3.276,0.825,5.896
					c1.247,7.945,3.334,21.242,1.968,31.064c-0.425,3.069-0.425,5.535-0.422,7.711c0.002,4.906,0.005,8.78-4.439,16.494
					l-0.141,0.243l0.28-0.02c0.113-0.005,0.229-0.009,0.349-0.009c1.404,0,3.165,0.469,4.574,0.937
					c-1.287-0.278-2.838-0.541-4.113-0.541c-0.572,0-1.058,0.053-1.446,0.155c-3.966,1.065-7.575,10.346-7.327,13.947
					c0.208,3.061,2.463,5.373,3.522,6.014c0.786,0.472,1.88,0.713,3.256,0.713c1.625,0,3.242-0.334,4.059-0.533l0.288-0.069
					l-0.227-0.19c-1.481-1.252-2.397-2.928-2.515-4.6c-0.301-4.38,3.293-12.474,6.682-13.409c0.398-0.11,0.84-0.166,1.312-0.166
					c1.641,0,3.399,0.661,4.702,1.286c-1.269-0.432-2.917-0.867-4.41-0.867c-0.551,0-1.05,0.062-1.484,0.18
					c-2.923,0.809-6.663,8.428-6.351,12.944c0.106,1.556,1.006,3.174,2.406,4.333c1.224,1.017,2.685,1.576,4.114,1.576
					c0.209,0,0.418-0.014,0.625-0.037c5.081-0.604,11.011-2.005,11.755-7.547c0.401-2.984,1.938-13.403,4.892-22.121
					c1.35-3.987,1.032-7.526,0.693-11.285c-0.231-2.576-0.472-5.242-0.152-8.141c0.338-3.107,1.359-8.938,2.448-15.154
					c1.329-7.604,2.705-15.464,2.684-17.719c-0.023-2.749-0.567-6.996-0.889-9.282l-0.008-0.058l-0.043-0.038
					c-0.779-0.655-1.555-1.325-2.326-1.997c-2.968-2.598-7.167-8.281-10.245-12.708c3.236,4.29,7.608,9.802,10.542,12.367
					c4.846,4.24,9.941,8.409,14.298,8.75c0.237,0.017,0.485,0.027,0.745,0.027c4.882,0,13.486-3.195,15.16-3.835l0.137-0.053
					l-0.048-0.138c-1.316-3.781-3.408-7.866-4.583-10.042c0.867,1.161,2.073,2.949,3.009,4.984c1.556,3.384,2.556,6.213,2.977,8.407
					c0.246,1.272,0.418,3.331,0.644,5.979c0.293,3.467,0.659,7.781,1.369,12.794l0.194,1.358c1.343,9.429,3.185,22.344,2.503,28.712
					c-0.387,3.604,0.001,5.968,0.375,8.25c0.384,2.35,0.749,4.566,0.283,7.924c-0.437,3.149-1.338,6.089-2.018,8.001l-0.066,0.183
					l0.195,0.016c0.527,0.042,1.07,0.17,1.606,0.374l0.088,0.033l0.068-0.062c1.043-0.965,2.339-1.454,3.851-1.454
					c1.65,0,3.064,0.577,3.596,0.826l0.08,0.036l0.07-0.048c1.021-0.705,2.376-1.108,3.721-1.108c0.266,0,0.53,0.016,0.783,0.045
					c1.327,0.169,2.34,0.727,2.857,1.574l0.075,0.122l0.125-0.067c0.751-0.41,2.06-0.823,3.288-0.823
					c0.355,0,0.687,0.036,0.992,0.103l0.196,0.042l-0.015-0.2c-0.367-5.078-0.496-9.231-0.396-12.705
					c0.093-3.286,0.168-5.882-0.791-12.156c-0.912-5.97-0.295-10.806,0.485-16.929c0.856-6.723,1.923-15.089,1.228-28.079
					c-0.204-3.797,0.2-6.637,0.592-9.383c0.443-3.118,0.863-6.065,0.308-10.062c-0.583-4.188-1.543-11.433-2.268-16.918
					c0.859,5.035,1.947,11.562,2.565,15.827l0.035,0.238l0.2-0.137c2.012-1.374,3.946-2.903,5.748-4.544
					c0.265-0.239,0.581-0.539,0.951-0.89l0.08-0.076c4.019-3.797,14.69-13.885,27.445-14.59l0.476-0.026l-0.404-0.252
					c-1.841-1.143-3.462-2.104-4.588-2.756c1.414,0.582,3.523,1.551,5.711,2.928c4.618,2.906,8.209,5.466,10.672,7.61
					c4.709,4.1,11.932,13.066,17.736,20.273c1.873,2.329,3.643,4.526,5.154,6.345c1.974,2.37,5.096,5.379,8.71,8.861
					c7.421,7.146,16.654,16.043,19.888,23.554C240.254,254.75,243.063,269.884,243.668,280.396z"/>
				<path fill="#FFFFFF" stroke="#000000" stroke-width="0.2147" stroke-miterlimit="10" d="M69,109.635
					c-0.004,13.408-1.434,29.585,6.157,41.21c4.532,6.941,11.965,1.361,16.278,8.377c3.569,5.805,1.104,16.415,6.494,21.303
					c1.681,1.523,7.911,1.148,10.237,3.269c2.503,2.284,1.961,6.292,5.726,6.981c3.672,7.092,11.001,13.605,12.938,21.301
					c1.126,4.475,0.146,10.39,0.146,14.986c0,6.723,2.275,21.492-4.51,25.799c-7.608,4.831-4.507-8.534-5.122-13.234
					c-0.911-6.951-2.676-18.072-5.331-24.27c-2.06,0.409-4.578,0.584-6.794,1.244c-1.685,0.502-3.066,2.205-4.624,2.575
					c-6.392,1.51-10.13-2.742-16.023-3.815c-0.772,13.273-3.208,26.021-3.444,39.159c-5.143-2.305-8.548-14.688-10.016-20.231
					c-2.236-8.442-1.117-16.438-0.647-24.791c0.76-13.492-7.184-25.23-11.942-37.295c-3.202-8.118-6.286-14.677-6.271-23.773
					c0.005-3.717,0.916-18.008,3.751-19.568c0.166-2.695-1.683-13.834,0.213-15.876c2.272-2.447,9.729-0.257,12.784-1.419"/>
				<path fill="#C5A771" d="M111.832,96.462c-0.458-1.125-1.517-3.939-1.517-3.939l-1.818-7.482
					c-3.176,2.404-10.351,3.814-12.452,4.295c-2.447,0.557-5.919,1.256-7.516,2c-1.574,0.736-11.613,4.97-16.388,8.589
					c-1.996,1.504-14.282,6.519-17.495,7.73c-1.656,0.625,0.058,5.648,0.058,5.648s-0.405,2.999,0.942,8.303
					c-0.021-0.045-0.038-0.093-0.059-0.138c-0.033-0.071-0.888,1.575-0.883,1.638c0.78,10.129,8.349,28.162,10.662,33.21
					c-0.604-4.646-3.436-14.16-4.983-19.632c-0.074-0.261-0.145-0.521-0.216-0.781c2.672,3.982,6.745,6.42,10.183,6.089
					c6.109-0.593,17.446-7.525,30.193-34.345c-2.747,14.217-6.806,35.7-10.981,50.057c7.16-15.097,13.981-38.443,17.475-54.782
					c3.271-1.086,5.753-3.903,5.753-3.903S112.124,97.179,111.832,96.462z"/>
				<path fill="#BCA176" d="M40.266,298.347c0-2.475,1.918-8.504,4.568-11.762l-0.196-0.223c-3.069,1.879-6.232,8.99-6.486,11.686
					c-0.258,2.74,1.788,4.725,2.524,5.205c0.491,0.319,1.13,0.513,1.901,0.577l0.419,0.037l-0.302-0.295
					C41.787,302.696,40.266,300.852,40.266,298.347z"/>
				<path fill="#D9C39A" d="M40.272,298.184c0.077-2.562,1.967-8.407,4.562-11.599l-0.196-0.223
					c-3.056,1.87-6.202,8.926-6.48,11.647C38.806,298.354,39.531,298.335,40.272,298.184z"/>
				<path fill="#BCA176" d="M46.017,298.946c-0.221-3.238,2.542-10.941,6.107-13.613l0.237-0.177l-0.283-0.087
					c-0.884-0.267-1.618-0.387-2.38-0.387c-0.663,0-1.325,0.092-2.027,0.284c-3.647,0.989-6.953,10.159-6.955,13.38
					c-0.001,3.023,2.476,5.214,3.342,5.744c0.722,0.439,1.677,0.663,2.836,0.663h0.001c0.502,0,1.047-0.042,1.618-0.126l0.296-0.043
					l-0.212-0.211C47.885,303.659,46.206,301.7,46.017,298.946z"/>
				<path fill="#D9C39A" d="M49.698,284.683c-0.663,0-1.325,0.092-2.027,0.284c-3.647,0.989-6.953,10.159-6.955,13.38
					c0,0.011,0.001,0.023,0.001,0.035c1.451,0.854,2.917,0.936,4.559,0.259c0.191-3.561,2.202-10.867,6.848-13.5
					C52.124,285.141,50.459,284.683,49.698,284.683z"/>
				<path fill="#BCA176" d="M133.559,294.796c-0.224-1.049-1.266-1.789-2.784-1.98c-0.248-0.029-0.505-0.045-0.766-0.045
					c-1.624,0-3.847,0.66-4.774,2.525c-1.279,2.569-1.997,8.192-2.083,11.183c-0.095,3.376,1.336,5.123,2.42,6.143
					c0.516,0.488,1.839,0.778,3.537,0.778l0,0c1.83,0,3.505-0.346,4.265-0.878c1.171-0.823,1.842-3.902,1.813-6.401
					C135.164,303.898,134.463,299.031,133.559,294.796z"/>
				<path fill="#BCA176" d="M265.853,281.787c-0.474-0.285-1.081-0.429-1.812-0.429c-1.125,0-2.319,0.349-2.952,0.675l-0.077,0.155
					l0.027,0.113c0.645,3.854,1.17,9.83,1.088,12.299c-0.056,1.64-0.42,3.223-1,4.341l-0.082,0.158l0.169,0.056
					c0.522,0.169,1.192,0.259,1.938,0.259c1.182,0,2.406-0.22,3.2-0.572c1.276-0.568,3.312-3.159,3.312-5.157
					C269.665,290.161,267.781,282.949,265.853,281.787z"/>
				<path fill="#BCA176" d="M260.596,282.376c-0.177-1.056-1.185-1.842-2.693-2.101c-0.337-0.058-0.691-0.091-1.051-0.091
					c-1.6,0-3.647,0.609-4.594,2.318c-1.299,2.34-2.403,7.715-2.584,11.073c-0.149,2.829,1.008,5.084,2.143,6.251
					c0.68,0.701,2.654,0.948,4.139,0.948l0,0c1.604,0,2.973-0.262,3.658-0.7c1.146-0.729,1.977-2.936,2.063-5.49
					C261.761,292.143,261.234,286.21,260.596,282.376z"/>
				<path fill="#BCA176" d="M61.04,287.036c-5.012,1.321-7.062,8.559-7.286,12.942c-2.436,0.68-5.268,0.556-7.283-1.032
					c0.221,3.048,2.464,5.346,3.519,5.984c0.786,0.472,1.88,0.713,3.256,0.713c1.625,0,3.242-0.334,4.059-0.533l0.288-0.069
					l-0.227-0.19c-1.439-1.217-2.339-2.834-2.497-4.459c-0.021-0.673-0.042-1.078,0.018-1.582
					C55.263,294.542,58.148,288.401,61.04,287.036z"/>
				<path fill="#FFFFFF" stroke="#000000" stroke-width="0.2147" stroke-miterlimit="10" d="M244.727,220.457
					c-0.445,2.031-1.031,4.745-3.018,4.979c-6.409,0.751-20.818-10.519-25.471-16.294c-4.814-5.976-19.877-28.132-36.533-35.541
					c-8.205-3.648-13.84,5.553-30.674,5.784c-4.933,0.067-13.299-4.055-12.638,0.169c0.347,2.228,1.116,7.298,1.116,7.298
					s1.947,11.56,2.565,15.826l0.035,0.238l0.2-0.135c2.012-1.377,3.946-2.906,5.748-4.546c0.265-0.239,0.581-0.541,0.951-0.89
					l0.08-0.075c4.019-3.798,14.69-13.888,27.445-14.591l0.476-0.026l-0.404-0.252c-1.841-1.143-3.462-2.103-4.588-2.756
					c1.414,0.58,3.523,1.551,5.711,2.926c4.618,2.906,8.209,5.467,10.672,7.611c4.709,4.098,11.932,13.067,17.736,20.274
					c1.873,2.329,3.643,4.524,5.154,6.342c1.974,2.375,5.096,5.382,8.71,8.863c4.62,4.45,9.933,9.576,14.071,14.625
					c-0.009-0.002-0.017-0.005-0.025-0.005c2.525,3.075,4.615,6.122,5.842,8.969c2.365,5.498,5.175,20.632,5.779,31.144l0.008,0.131
					l0.133,0.011c0.629,0.046,1.271,0.214,1.91,0.496c0,0,1.457-6.816-0.705-27.594c-0.365-3.491,7.224-16.674,1.496-28.917
					C246.276,224.02,245.006,220.954,244.727,220.457z"/>
				<path fill="#BCA176" d="M249.226,293.554c0.158-3.021,1.166-8.615,2.637-11.268c0.181-0.324,0.424-0.633,0.769-0.969
					l0.141-0.137l-0.17-0.1c-0.363-0.212-1.672-0.902-3.234-0.902c-1.403,0-2.639,0.539-3.676,1.605
					c-1.821,1.869-4.719,8.93-4.719,12.325c0,2.68,2.195,5.316,3.129,5.602c0.994,0.308,2.372,0.491,3.688,0.491l0,0
					c1.309,0,2.409-0.178,3.094-0.502l0.168-0.076l-0.109-0.148C249.736,297.858,249.109,295.7,249.226,293.554z"/>
				<path fill="#C5A771" d="M270.223,70.501c-3.048-7.293-7.2-13.188-13.066-18.551c-6.096-5.572-12.914-6.791-15.027-6.791
					c-0.303,0-0.539,0.021-0.699,0.062c-0.184,0.05-0.328,0.185-0.389,0.361c-0.059,0.173-0.025,0.362,0.086,0.507
					c0.345,0.444,0.992,1.121,1.465,1.616c0.74,0.773,2.723,3.214,2.953,3.533c8.107,11.25,11.111,20.507,9.449,29.133
					c-1.748,9.067-9.392,17.289-19.951,21.451c-8.948,3.529-19.328,4.235-29.193,4.654l-0.428,0.018l0.346,0.254
					c0.271,0.201,0.547,0.404,0.824,0.616c3.377,2.587,7.052,6.628,10.623,11.689l0.039,0.052l0.062,0.01
					c2.396,0.333,4.955,0.502,7.604,0.502c7.271,0,15.265-1.279,23.12-3.699c11.451-3.525,20.855-12.619,23.961-23.166
					C274.004,85.945,273.373,78.044,270.223,70.501z"/>
				<path fill="#BCA176" d="M269.222,69.618c6.269,38.241-36.545,44.712-60.37,39.955c1.445,1.678,5.926,6.562,7.363,8.597
					l0.036,0.053l0.064,0.01c2.396,0.334,4.954,0.503,7.605,0.503c7.269,0,15.265-1.279,23.12-3.699
					c11.449-3.525,20.854-12.62,23.961-23.166C273.003,85.062,272.371,77.159,269.222,69.618z"/>
				<path fill="#BCA176" d="M122.703,306.466c0.088-3.121,0.807-8.713,2.129-11.37c0.177-0.354,0.423-0.69,0.777-1.054l0.136-0.142
					l-0.171-0.095c-0.343-0.188-1.577-0.799-3.089-0.799c-1.505,0-2.8,0.6-3.846,1.783c-1.722,1.943-4.277,9.148-4.123,12.563
					c0.121,2.705,2.409,5.255,3.344,5.498c0.841,0.219,1.923,0.338,3.046,0.338c1.564,0,2.915-0.231,3.707-0.641l0.17-0.087
					l-0.127-0.143C123.275,310.735,122.636,308.82,122.703,306.466z"/>
				<path fill="#9E8763" d="M171.531,282.595c0.157-1.977,2.59-8.873,4.707-10.577c0.326-0.262,0.747-0.522,1.25-0.776l-0.085-0.281
					c-0.675,0.073-1.731,0.295-2.926,0.929c-2.835,1.499-4.993,9.579-5.169,11.309c-0.258,2.552,0.9,4.02,1.92,4.805
					c0.492,0.378,1.1,0.597,1.806,0.651l0.337,0.026l-0.207-0.269C172.096,287.03,171.378,284.476,171.531,282.595z"/>
				<path fill="#BCA176" d="M138.785,293.97c-0.431-0.235-0.971-0.354-1.597-0.354c-1.272,0-2.58,0.486-3.151,0.812l-0.067,0.16
					L134,294.7c0.775,3.624,1.61,8.855,1.639,11.414c0.016,1.394-0.205,3.589-0.883,5.194l-0.066,0.152l0.161,0.049
					c0.449,0.134,0.992,0.202,1.618,0.202h0.001c1.27,0,2.709-0.293,3.581-0.728c1.185-0.592,3.212-3.726,3.119-5.765
					C143.002,301.466,140.705,295.015,138.785,293.97z"/>
				<path fill="#BCA176" d="M114.067,307.373c-0.146-3.211,2.166-10.354,4.122-12.737l0.141-0.17l-0.21-0.07
					c-0.511-0.164-1.021-0.248-1.514-0.248c-1.149,0-2.191,0.447-3.097,1.329c-1.684,1.639-4.578,7.817-4.755,10.784
					c-0.135,2.295,1.633,4.719,2.446,5.172c0.636,0.354,1.796,0.565,3.103,0.565c0.491,0,0.978-0.032,1.409-0.093l0.255-0.034
					l-0.158-0.205C114.777,310.331,114.126,308.728,114.067,307.373z"/>
				<path fill="#D9C39A" d="M134.677,306.846c0.005-0.181,0.008-0.356,0.005-0.531c-0.023-2.221-0.725-7.09-1.628-11.326
					c-0.225-1.046-0.979-2.218-3.044-2.218c-1.624,0-3.336,0.738-4.265,2.604c-1.276,2.567-1.996,8.19-2.082,11.182
					c-0.012,0.401,0.001,0.776,0.03,1.131C127.072,309.761,132.668,308.733,134.677,306.846z"/>
				<path fill="#D9C39A" d="M122.943,298.796c0.4-1.631,0.988-4.001,2.468-5.074c-0.481-0.242-1.596-0.715-2.927-0.715
					c-1.505,0-2.201,0.717-3.247,1.899c-1.71,1.935-4.247,9.066-4.125,12.504c1.934,1.342,4.877,1.171,6.731,0.576
					C121.857,304.917,122.219,301.744,122.943,298.796z"/>
				<path fill="#D9C39A" d="M138.785,293.97c-0.431-0.235-0.971-0.354-1.597-0.354c-1.081,0-2.185,0.35-2.842,0.656
					c1.258,2.686,1.87,9.678,1.924,12.187c2.167,0.507,5.007-0.076,6.9-1.136c0-0.032,0.004-0.069,0.001-0.104
					C143.002,301.466,140.705,295.015,138.785,293.97z"/>
				<path fill="#D9C39A" d="M118.055,294.382c-0.488-0.152-0.976-0.234-1.45-0.234c-1.149,0-1.567,0.341-2.475,1.223
					c-1.684,1.638-4.428,8.065-4.606,11.031c-0.013,0.24-0.002,0.48,0.021,0.721c0.964,0.668,2.476,0.785,3.939,0.129
					C113.476,303.048,115.485,296.313,118.055,294.382z"/>
				<path fill="#BCA176" d="M240.523,294.109c0-3.511,2.846-10.483,4.776-12.563l0.151-0.16l-0.208-0.08
					c-0.588-0.228-1.177-0.342-1.751-0.342c-1.072,0-2.068,0.401-2.959,1.191c-1.771,1.576-4.959,7.62-5.269,10.561
					c-0.237,2.272,1.442,4.781,2.245,5.277c0.704,0.436,2.111,0.717,3.584,0.717c0.301,0,0.598-0.014,0.878-0.038l0.259-0.023
					l-0.151-0.214C241.104,297.067,240.523,295.448,240.523,294.109z"/>
				<path fill="#D9C39A" d="M265.853,281.787c-0.474-0.285-1.081-0.429-1.812-0.429c-1.01,0-2.072,0.283-2.738,0.574
					c1.432,3.719,1.672,8.433,1.342,12.409c2.237,0.474,4.943-0.013,7.009-1.047C269.529,289.658,267.715,282.909,265.853,281.787z"
					/>
				<path fill="#D9C39A" d="M261.158,294.062c0.006-2.688-0.493-8.103-1.089-11.684c-0.177-1.055-0.658-1.844-2.167-2.103
					c-0.337-0.058-0.691-0.091-1.051-0.091c-1.6,0-3.211,0.487-4.159,2.196c-1.298,2.339-2.188,8.288-2.368,11.648
					C254.225,295.315,257.221,295.026,261.158,294.062z"/>
				<path fill="#D9C39A" d="M252.488,281.018c-0.465-0.257-1.682-0.839-3.121-0.839c-1.403,0-2.107,0.672-3.143,1.736
					c-1.775,1.824-4.57,8.58-4.705,12.062c2.205,1.004,4.51,0.933,6.771,0.163C248.493,289.844,250.104,282.183,252.488,281.018z"/>
				<path fill="#D9C39A" d="M245.16,281.278c-0.561-0.208-1.122-0.314-1.668-0.314c-1.072,0-1.629,0.359-2.52,1.149
					c-1.771,1.576-4.757,7.759-5.064,10.7c1.088,0.694,2.661,1.187,4.033,1.031C240.002,291.244,241.773,284.272,245.16,281.278z"/>
				<path fill="#9E8763" d="M205.057,225.11c-2.885-3.451-6.476-7.745-8.27-12.457c-2.039-5.352-2.78-11.082-3.041-14.021
					l-0.004-0.047l-0.031-0.037c-3.199-3.706-5.689-6.321-7.607-7.991c-2.402-2.092-5.886-4.582-10.355-7.405l-0.037-0.022h-0.044
					c-7.876,0.101-16.199,3.898-24.74,11.288l-0.067,0.058l0.019,0.086c0.397,1.891,2.652,11.694,8.006,19.21
					c2.828,3.971,8.339,8.408,13.671,12.697c5.998,4.83,11.666,9.393,13.801,13.341c4.109,7.61,5.719,29.138,2.389,31.991
					c-0.371,0.318-0.885,0.48-1.523,0.48c-1.389,0-3.126-0.744-4.396-1.289c-0.411-0.178-0.917-0.266-1.501-0.266
					c-1.6,0-3.619,0.69-4.804,1.642c-1.95,1.571-4.396,8.445-4.542,10.265c-0.173,2.159,0.85,5.152,2.066,6.043
					c0.849,0.623,2.945,0.902,4.646,0.902c0.473,0,0.909-0.022,1.266-0.066l0.321-0.036l-0.237-0.22
					c-0.908-0.854-2.434-2.717-2.424-5.611c0.005-2.434,2.814-10.232,5.393-10.703c0.452-0.082,0.93-0.125,1.416-0.125
					c1.332,0,2.788,0.313,4.342,0.932c-1.137-0.242-2.715-0.51-4.109-0.51c-0.604,0-1.133,0.05-1.574,0.148
					c-2.218,0.493-5.011,7.744-5.018,10.259c-0.006,2.367,1.225,4.713,3.137,5.975c0.635,0.421,3.077,0.692,6.217,0.692
					c0.002,0,0.002,0,0.002,0c1.002,0,2.051-0.028,3.118-0.082c5.313-0.273,9.613-1.125,11.792-2.338
					c1.9-1.059,3.941-6.886,4.959-14.173c2.123-15.193,3.556-39.897,2.08-42.81C208.549,229.286,206.932,227.354,205.057,225.11z"/>
				<path fill="#FFEAC2" d="M88.528,153.162c4.749-12.59,8.382-34.454,8.382-34.454S90.633,140.179,88.528,153.162z"/>
				<path fill="#FFEAC2" d="M54.548,127.458c-2.308,6.71-5.618,18.629-6.729,26.827C50.102,146.088,53.432,132.792,54.548,127.458z"
					/>
				<path fill="#FFEAC2" d="M114.476,101.622l0.517,1.208c0,0,12.621,2.454,19.832,11.883
					C129.494,104.175,114.476,101.622,114.476,101.622z"/>
				<path fill="#FFEAC2" d="M191.504,101.628c-6.65-0.86-13.882,1.357-20.219,3.021c-7.94,2.086-14.341,2.186-22.374,0.879
					c-6.631-1.08-14.086-2.702-22.495-1.581c14.177-0.513,27.765,5.413,40.818,2.93c6.784-1.292,14.381-4.21,21.373-4.224
					c9.55-0.014,20.425,8.149,20.425,8.149S200.541,102.795,191.504,101.628z"/>
				<path fill="#FFEAC2" d="M256.239,74.708c-0.22,11.295-5.296,17.867-12.632,23.431c-10.869,8.245-33.533,9.061-33.533,9.061
					s21.398,1.52,34.441-8.082C251.996,93.61,257.812,86.304,256.239,74.708z"/>
				<path fill="#FFEAC2" d="M262.628,58.84c-4.486-6.791-12.989-12.733-20.61-13.323C250.047,47.407,256.658,52.294,262.628,58.84z"
					/>
				<path fill="#FFEAC2" d="M248.656,228.185c0,0,4.754,6.296,6.205,9.71c2.104,4.944,4.841,17.296,4.841,17.296
					s-1.645-12.715-3.815-17.984C254.379,233.542,248.656,228.185,248.656,228.185z"/>
				<path fill="#FFEAC2" d="M46.068,286.49c1.308-0.671,2.797-1.273,5.339-1.235C48.055,284.505,46.068,286.49,46.068,286.49z"/>
				<path fill="#FFEAC2" d="M61.142,286.235c0,0-3.752-1.103-6.05-0.955s-3.385,1.553-3.385,1.553s1.671-1.011,3.391-1.076
					C57.71,285.653,61.142,286.235,61.142,286.235z"/>
				<path fill="#FFEAC2" d="M60.428,288.653c0,0,0.741-0.863,1.987-1.088c1.243-0.228,3.917,0.432,3.917,0.432
					s-2.359-0.209-3.763,0.009C60.848,288.273,60.428,288.653,60.428,288.653z"/>
				<path fill="#FFEAC2" d="M124.809,293.944c0,0-2.109-1.35-4.382,0.021C121.863,293.511,123.208,293.553,124.809,293.944z"/>
				<path fill="#FFEAC2" d="M126.89,294.14c0,0,1.138-0.935,2.768-1.043c1.631-0.108,2.877,0.818,2.877,0.818
					s-1.167-0.515-2.921-0.441C128.17,293.532,126.89,294.14,126.89,294.14z"/>
				<path fill="#FFEAC2" d="M117.625,294.511c0,0-2.013-0.545-3.211,0.811C114.413,295.321,115.772,294.469,117.625,294.511z"/>
				<path fill="#FFEAC2" d="M134.836,294.415c0,0,1.506-0.632,2.818-0.467c1.313,0.164,1.952,1.312,1.952,1.312
					s-0.642-0.824-2.009-0.969C136.149,294.14,134.836,294.415,134.836,294.415z"/>
				<path fill="#FFEAC2" d="M251.752,281.178c0,0-2.17-1.347-4.508,0.024C248.722,280.745,250.104,280.788,251.752,281.178z"/>
				<path fill="#FFEAC2" d="M253.56,281.639c0,0,1.221-0.935,2.97-1.044c1.745-0.108,3.084,0.82,3.084,0.82
					s-1.252-0.516-3.133-0.443C254.932,281.033,253.56,281.639,253.56,281.639z"/>
				<path fill="#FFEAC2" d="M244.441,281.465c0,0-2.012-0.544-3.211,0.812C241.23,282.276,242.588,281.423,244.441,281.465z"/>
				<path fill="#FFEAC2" d="M261.653,282.155c0,0,1.507-0.63,2.82-0.465c1.311,0.164,1.951,1.311,1.951,1.311
					s-0.644-0.823-2.009-0.965C262.967,281.881,261.653,282.155,261.653,282.155z"/>
				<path fill="#381000" d="M94.289,143.488c3.362-14.358,6.235-27.973,8.361-40.448C101.168,116.729,98.356,130.337,94.289,143.488
					z"/>
				<path fill="#381000" d="M84.652,203.162c-3.479-7.407-6.499-15.118-8.978-22.919C77.34,188.286,80.251,195.974,84.652,203.162z"
					/>
				<path fill="#381000" d="M108.261,85.207c0.2-0.267,2.396,9.469,3.023,11.058c1.013,2.562,2.446,6.187,3.842,10.172
					c0.864,2.472,3.162,7.455,3.162,7.455c-1.248-4.436-2.859-8.951-4.287-12.713c4.955,1.217,9.707,2.654,13.048,4.738
					c5.542,3.454,9.125,9.041,9.125,9.041c-3.231-5.522-5.668-8.717-11.95-11.375c2.691-0.195,10.534-0.692,15.201-0.209
					c1.594,0.165,3.49,0.499,5.499,0.854c5.319,0.939,11.938,2.109,18.48,1.204c5.104-0.705,8.743-1.58,12.263-2.426
					c2.622-0.632,5.098-1.226,7.907-1.667c5.808-0.912,13.039-0.856,22.652,6.503c9.333,7.146,18.478,23.348,21.229,31.814
					c2.435,7.492,4.352,20.129,6.778,36.125c0.403,2.654,0.819,5.4,1.255,8.234c2.861,18.59,7.023,32.238,9.967,38.813
					c1.012,2.266,2.889,4.118,4.875,6.08c2.944,2.903,6.278,6.196,7.445,11.6c1.719,7.962,5.055,26.411,5.615,40.282
					c-0.981,0.094-1.91,0.378-2.498,0.668c-0.491-0.895-1.511-1.539-2.89-1.776c-1.573-0.271-3.479,0.032-4.878,1.011
					c0,0-0.156-0.096-0.305-0.173c-0.898-0.487-4.199-1.983-7.043,0.376c-0.531-0.236-1.205-0.456-1.961-0.512
					c-0.6-10.42-3.381-25.59-5.793-31.191c-3.244-7.54-12.49-16.448-19.92-23.605c-3.611-3.479-6.731-6.484-8.698-8.85
					c-1.499-1.803-3.274-4.005-5.153-6.34c-5.809-7.211-13.037-16.189-17.756-20.295c-2.947-2.566-7.121-5.38-10.689-7.624
					c-3.895-2.45-7.49-3.6-7.49-3.6c0.055,0.031,2.749,1.536,6.208,3.684c-12.793,0.706-23.382,10.701-27.542,14.632
					c-0.402,0.382-0.746,0.706-1.028,0.964c-2.075,1.886-4.055,3.384-5.731,4.53c-1.14-7.846-3.832-23.136-3.832-23.136
					s2.202,16.839,3.234,24.269c0.554,3.979,0.134,6.916-0.308,10.025c-0.392,2.752-0.797,5.598-0.592,9.408
					c0.694,12.975-0.37,21.335-1.226,28.053c-0.782,6.136-1.399,10.981-0.484,16.971c0.957,6.264,0.881,8.854,0.788,12.135
					c-0.078,2.645-0.049,6.56,0.396,12.714c-1.544-0.341-3.433,0.219-4.384,0.734c-0.53-0.87-1.577-1.467-2.965-1.642
					c-1.505-0.188-3.273,0.163-4.607,1.086c-0.937-0.438-4.781-1.965-7.615,0.653c-0.463-0.178-1.027-0.332-1.647-0.383
					c0.671-1.888,1.584-4.842,2.023-8.029c0.47-3.38,0.104-5.611-0.282-7.97c-0.374-2.273-0.758-4.625-0.375-8.21
					c0.683-6.385-1.159-19.311-2.503-28.749l-0.193-1.357c-0.71-5.008-1.075-9.32-1.37-12.785c-0.222-2.632-0.397-4.707-0.645-5.997
					c-0.494-2.58-1.728-5.696-2.988-8.44c-1.665-3.622-4.151-6.429-4.151-6.429c0.042,0.075,3.562,6.172,5.448,11.599
					c-1.864,0.713-11.18,4.162-15.84,3.799c-4.312-0.338-9.384-4.489-14.212-8.713c-5.194-4.545-14.794-18.182-14.794-18.182
					s9.025,14.131,14.3,18.746c0.772,0.674,1.55,1.345,2.329,2c0.339,2.402,0.864,6.549,0.888,9.266
					c0.02,2.246-1.357,10.121-2.69,17.736c-1.082,6.176-2.102,12.009-2.442,15.119c-0.319,2.918-0.079,5.594,0.153,8.182
					c0.338,3.732,0.654,7.258-0.686,11.212c-2.955,8.727-4.497,19.159-4.898,22.149c-0.73,5.439-6.597,6.821-11.625,7.416
					c-1.564,0.188-3.25-0.363-4.625-1.504c-1.368-1.134-2.247-2.714-2.351-4.229c-0.309-4.466,3.365-11.994,6.24-12.789
					c2.985-0.823,7.92,1.527,7.92,1.527c-0.193-0.13-4.802-3.164-8.12-2.249c-3.441,0.948-7.095,9.137-6.791,13.563
					c0.12,1.717,1.056,3.429,2.569,4.703c-1.376,0.335-5.143,1.081-7.202-0.164c-1.038-0.625-3.247-2.888-3.452-5.894
					c-0.245-3.563,3.31-12.739,7.217-13.792c2.437-0.652,8.021,1.026,8.021,1.026s-4.605-2.036-7.435-1.86
					c4.447-7.719,4.461-11.675,4.458-16.57c-0.001-2.172-0.004-4.631,0.422-7.691c1.367-9.842-0.722-23.153-1.971-31.106
					c-0.412-2.616-0.737-4.685-0.822-5.886c-0.113-1.527-0.129-3.486-0.147-5.756c-0.042-4.952-0.095-11.117-1.208-16.244
					c-0.905-4.174-2.548-9.037-4.135-13.738c-1.221-3.615-2.372-7.028-3.051-9.749c-1.529-6.107-2.159-17.511-0.519-25.286
					c1.459-6.903,6.792-25.688,7.912-29.625c1.758,7.633,4.347,17.549,7.053,23.301c0,0-7.258-25.928-7.965-37.661
					c-0.468,0.022-1.051,0.049-1.051,0.049s0.963,9.209,1.597,12.71c-1.083,3.818-6.802,24.062-8.279,31.071
					c-1.664,7.88-1.025,19.436,0.521,25.623c0.688,2.749,1.845,6.178,3.071,9.807c1.58,4.684,3.214,9.523,4.113,13.658
					c1.096,5.054,1.148,11.174,1.189,16.093c0.02,2.281,0.034,4.252,0.149,5.803c0.091,1.23,0.418,3.313,0.832,5.948
					c1.242,7.911,3.32,21.155,1.968,30.886c-0.433,3.11-0.432,5.601-0.431,7.795c0.004,4.895-0.02,8.836-4.685,16.745
					c-0.191,0.064-0.382,0.139-0.57,0.233c-1.435-0.49-3.083-0.927-5.358-0.31c-0.54,0.147-1.064,0.447-1.574,0.86
					c-0.159,0.031-0.318,0.06-0.488,0.104c-3.753,1-7.622,9.737-7.903,12.719c-0.286,3.032,1.896,5.156,2.759,5.719
					c0.798,0.519,1.818,0.692,2.823,0.692c0.129,0,0.254-0.011,0.383-0.015c0.083,0.058,0.162,0.11,0.231,0.154
					c0.932,0.565,2.072,0.752,3.179,0.752c0.826,0,1.622-0.105,2.302-0.235c0.158,0.121,0.311,0.229,0.453,0.314
					c1,0.604,2.309,0.802,3.592,0.802c1.827,0,3.931-0.449,4.834-0.666c1.158,0.742,2.454,1.146,3.719,1.146
					c0.232,0,0.463-0.013,0.691-0.04c4.885-0.579,11.471-2.044,12.28-8.062c0.399-2.972,1.932-13.347,4.865-22.008
					c1.392-4.105,1.067-7.707,0.724-11.521c-0.229-2.551-0.467-5.188-0.155-8.036c0.338-3.084,1.356-8.904,2.434-15.068
					c1.339-7.649,2.725-15.559,2.704-17.871c-0.022-2.474-0.45-6.081-0.784-8.548c3.926,3.226,7.894,5.904,11.466,6.185
					c0.251,0.019,0.513,0.029,0.787,0.029c5.007,0,13.458-3.137,15.348-3.863c0.306,0.942,0.555,1.854,0.717,2.7
					c0.239,1.249,0.415,3.31,0.634,5.916c0.294,3.476,0.66,7.8,1.375,12.829l0.193,1.357c1.339,9.398,3.172,22.27,2.5,28.563
					c-0.395,3.685,0,6.089,0.379,8.41c0.377,2.303,0.734,4.478,0.283,7.747c-0.454,3.277-1.417,6.303-2.082,8.132
					c-0.988,0.077-2.068,0.47-3.095,1.468c-1.79,1.742-4.749,8.041-4.935,11.179c-0.15,2.522,1.697,5.146,2.753,5.733
					c0.731,0.405,2.114,0.641,3.476,0.641c0.658,0,1.302-0.059,1.876-0.175c0.515,0.534,1.03,0.9,1.451,1.009
					c0.856,0.225,2.038,0.362,3.239,0.362c1.565,0,3.161-0.239,4.127-0.823c0.03,0.028,0.055,0.061,0.085,0.088
					c0.691,0.65,2.264,0.94,3.91,0.94c1.833,0,3.753-0.36,4.646-0.988c0.309-0.217,0.576-0.535,0.809-0.919
					c0.549,0.134,1.343,0.22,1.932,0.22c1.406,0,2.937-0.328,3.859-0.791c1.377-0.688,3.557-4.007,3.451-6.328
					c-0.163-3.634-2.379-10.484-4.695-11.749c-0.45-6.15-0.6-10.236-0.521-13.008c0.096-3.318,0.172-5.939-0.794-12.269
					c-0.9-5.886-0.288-10.687,0.487-16.764c0.86-6.748,1.928-15.146,1.23-28.188c-0.2-3.737,0.2-6.547,0.587-9.261
					c0.449-3.164,0.876-6.151,0.308-10.232c-0.008-0.066-0.019-0.138-0.028-0.203c1.766-1.19,3.893-2.78,6.118-4.805
					c0.287-0.259,0.634-0.588,1.041-0.972c0.754-0.712,1.725-1.628,2.878-2.648c0.559,2.49,2.897,11.836,8.016,19.025
					c2.875,4.036,8.421,8.5,13.783,12.814c5.951,4.791,11.57,9.316,13.648,13.159c3.92,7.259,5.645,28.579,2.528,31.251
					c-1.063,0.911-3.815-0.271-5.292-0.904c-1.092-0.469-2.579-0.375-3.978,0.023c-1.992-0.123-3.528,0.174-4.89,0.895
					c-3.211,1.698-5.328,10.238-5.482,11.777c-0.303,2.978,1.218,4.626,2.149,5.342c0.868,0.668,1.87,0.791,2.499,0.791
					c0.206,0,0.363-0.013,0.472-0.024c1.009,0.633,3.13,0.94,4.862,0.94c0.809,0,1.515-0.069,1.994-0.201
					c0.061,0.043,0.121,0.098,0.184,0.139c0.771,0.508,3.419,0.8,6.681,0.8c5.175,0,11.892-0.735,15.07-2.505
					c2.577-1.435,4.445-8.771,5.263-14.615c2.158-15.457,3.58-40.089,2.02-43.164c-0.855-1.685-2.492-3.645-4.389-5.914
					c-3.007-3.593-6.412-7.666-8.172-12.284c-1.793-4.71-2.568-9.714-2.898-12.805c3.1,3.634,6.336,7.653,9.221,11.236
					c1.883,2.335,3.66,4.543,5.162,6.349c1.994,2.396,5.127,5.414,8.755,8.91c7.381,7.109,16.567,15.96,19.753,23.36
					c2.336,5.426,5.125,20.687,5.729,30.899c-0.934,0.076-1.941,0.438-2.932,1.317c-1.881,1.671-5.142,7.835-5.467,10.944
					c-0.262,2.501,1.486,5.21,2.526,5.851c0.803,0.497,2.44,0.811,3.962,0.811c0.473,0,0.92-0.042,1.339-0.109
					c0.501,0.56,1.008,0.952,1.429,1.083c1.008,0.309,2.477,0.521,3.902,0.521c1.338,0,2.634-0.189,3.482-0.652
					c0.025,0.029,0.051,0.063,0.078,0.09c0.745,0.769,2.637,1.131,4.504,1.131c1.625,0,3.231-0.274,4.045-0.794
					c0.339-0.216,0.627-0.521,0.885-0.865c0.637,0.205,1.538,0.3,2.312,0.3c1.282,0,2.616-0.249,3.466-0.627
					c1.443-0.642,3.668-3.382,3.668-5.705c0-3.312-1.773-11.007-4.104-12.412c-0.584-0.352-1.295-0.494-2.02-0.509
					c-0.563-13.923-3.906-32.429-5.633-40.413c-1.214-5.62-4.632-8.998-7.65-11.975c-1.936-1.91-3.762-3.715-4.721-5.851
					c-2.92-6.531-7.057-20.106-9.904-38.623c-0.436-2.832-0.854-5.579-1.256-8.233c-2.434-16.03-4.354-28.691-6.809-36.244
					c-1.623-4.995-5.454-12.656-10.24-19.608c4.844,0.599,16.955,0.938,30.289-3.322c12.064-3.854,21.326-13.27,24.359-23.572
					c2.041-6.94,1.402-14.984-1.803-22.652c-2.646-6.333-6.709-12.765-13.19-18.738c-6.897-6.359-15.473-7.332-16.769-6.71
					c-0.28,0.135-0.454,0.309-0.515,0.517c-0.181,0.615,0.512,1.377,1.856,2.782c0.736,0.772,2.606,3.064,2.807,3.342
					c8.07,11.156,11.07,20.325,9.438,28.797c-2.04,10.602-11.452,17.801-19.58,21.006c-9.039,3.565-20.345,4.202-30.031,4.604
					c-8.904-6.153-15.758-6.146-21.333-5.27c-2.837,0.446-5.328,1.045-7.965,1.678c-3.503,0.841-7.124,1.711-12.19,2.412
					c-6.427,0.889-12.981-0.27-18.248-1.198c-2.021-0.357-3.932-0.694-5.552-0.861c-4.869-0.505-14.33,0.043-17.136,0.225
					c-2.357-0.861-5.199-1.684-8.691-2.528c-0.627-1.637-1.21-3.11-1.694-4.335c-0.571-1.446-1.071-2.917-1.255-3.562
					L108.261,85.207z M40.759,303.128c-0.717-0.466-2.709-2.399-2.458-5.066c0.249-2.638,3.357-9.699,6.415-11.571
					c-2.68,3.297-4.601,9.381-4.601,11.856c0,2.376,1.34,4.238,2.473,5.334C41.917,303.625,41.276,303.465,40.759,303.128z
					 M44.137,303.964c-0.85-0.521-3.271-2.662-3.27-5.617c0-3.188,3.253-12.263,6.843-13.236c1.772-0.48,3.11-0.265,4.323,0.104
					c-3.572,2.677-6.395,10.383-6.165,13.743c0.16,2.353,1.426,4.323,2.623,5.523C47.094,304.686,45.367,304.712,44.137,303.964z
					 M111.272,311.302c-0.789-0.439-2.502-2.797-2.371-5.031c0.176-2.941,3.042-9.062,4.711-10.687
					c1.586-1.542,3.297-1.421,4.46-1.044c-1.964,2.394-4.305,9.565-4.156,12.84c0.071,1.559,0.858,3.195,1.772,4.379
					C114.192,311.966,112.192,311.815,111.272,311.302z M117.898,312.707c-0.879-0.229-3.115-2.767-3.232-5.36
					c-0.152-3.388,2.381-10.531,4.086-12.457c2.659-3.005,6.205-1.25,6.748-0.953c-0.313,0.322-0.594,0.677-0.802,1.092
					c-1.332,2.678-2.057,8.3-2.145,11.434c-0.068,2.388,0.585,4.346,1.991,5.955C123.078,313.171,119.832,313.211,117.898,312.707z
					 M133.288,312.397c-1.533,1.076-6.511,1.15-7.612,0.115c-1.063-1-2.468-2.715-2.373-6.029c0.084-2.979,0.8-8.573,2.065-11.12
					c0.83-1.667,2.838-2.444,4.642-2.444c0.254,0,0.505,0.016,0.746,0.047c1.455,0.184,2.447,0.879,2.656,1.86
					c0.904,4.228,1.603,9.083,1.626,11.295C135.065,308.528,134.404,311.613,133.288,312.397z M138.712,294.103
					c1.884,1.023,4.14,7.406,4.309,11.124c0.089,1.99-1.885,5.048-3.038,5.624c-1.218,0.609-3.635,0.951-5.089,0.515
					c0.666-1.575,0.91-3.759,0.895-5.254c-0.027-2.567-0.868-7.811-1.642-11.441c-0.009-0.038-0.025-0.072-0.036-0.112
					C134.983,294.061,137.295,293.332,138.712,294.103z M171.32,287.882c-0.988-0.76-2.114-2.186-1.863-4.67
					c0.176-1.718,2.337-9.734,5.092-11.191c1.05-0.557,2.049-0.822,2.871-0.912c-0.473,0.236-0.915,0.501-1.273,0.792
					c-2.145,1.724-4.605,8.688-4.766,10.683c-0.16,1.986,0.603,4.547,1.666,5.922C172.543,288.466,171.891,288.321,171.32,287.882z
					 M196.646,212.706c1.804,4.735,5.402,9.041,8.296,12.5c1.867,2.232,3.479,4.163,4.295,5.771
					c1.467,2.895,0.026,27.549-2.095,42.721c-1.012,7.244-3.019,13.026-4.882,14.064c-2.16,1.201-6.436,2.046-11.727,2.316
					c-4.862,0.249-8.518-0.103-9.247-0.585c-1.872-1.234-3.076-3.529-3.069-5.849c0.006-2.469,2.807-9.647,4.898-10.112
					c2.571-0.574,7.18,0.737,7.18,0.737c-2.734-1.366-5.197-1.864-7.312-1.476c-2.697,0.493-5.51,8.315-5.516,10.85
					c-0.008,2.523,1.152,4.482,2.473,5.721c-1.584,0.186-4.74-0.027-5.807-0.811c-1.183-0.867-2.174-3.795-2.005-5.91
					c0.147-1.803,2.56-8.607,4.487-10.159c1.496-1.204,4.512-2.059,6.15-1.354c1.855,0.794,4.66,1.996,6.077,0.783
					c3.358-2.878,1.773-24.529-2.356-32.174c-2.148-3.979-7.825-8.55-13.839-13.389c-5.323-4.283-10.826-8.715-13.64-12.666
					c-5.391-7.569-7.654-17.592-7.982-19.154c5.403-4.676,14.38-11.12,24.643-11.252c3.482,2.199,7.49,4.913,10.338,7.392
					c2.128,1.852,4.784,4.725,7.592,7.976C193.857,201.594,194.6,207.335,196.646,212.706z M237.589,297.865
					c-0.778-0.481-2.406-2.919-2.175-5.135c0.306-2.914,3.466-8.903,5.219-10.462c1.681-1.494,3.412-1.266,4.559-0.822
					c-1.931,2.079-4.818,9.125-4.818,12.663c0,1.543,0.719,3.195,1.586,4.413C240.455,298.659,238.48,298.415,237.589,297.865z
					 M244.145,299.569c-0.876-0.27-3.021-2.891-3.021-5.46c0-3.366,2.872-10.368,4.676-12.221c2.713-2.786,6.053-1.071,6.727-0.678
					c-0.303,0.296-0.582,0.617-0.793,1.001c-1.482,2.671-2.496,8.298-2.658,11.333c-0.135,2.551,0.736,4.665,1.746,6.021
					C249.334,300.263,246.062,300.161,244.145,299.569z M259.532,299.949c-1.577,1.007-6.554,0.858-7.608-0.228
					c-1.111-1.144-2.246-3.356-2.1-6.136c0.178-3.345,1.273-8.687,2.564-11.009c1.029-1.859,3.547-2.49,5.488-2.154
					c1.445,0.249,2.404,0.988,2.57,1.979c0.638,3.822,1.162,9.741,1.08,12.179C261.442,297.087,260.641,299.243,259.532,299.949z
					 M265.773,281.915c1.894,1.142,3.74,8.276,3.74,11.77c0,1.944-1.979,4.467-3.222,5.021c-1.224,0.544-3.592,0.776-5.03,0.308
					c0.658-1.273,0.967-2.947,1.016-4.407c0.084-2.475-0.445-8.466-1.09-12.329c-0.007-0.038-0.022-0.072-0.029-0.11
					C262.051,281.707,264.395,281.083,265.773,281.915z M217.338,118.968c-3.268-4.631-6.945-8.882-10.654-11.723
					c-0.279-0.212-0.555-0.417-0.828-0.618c9.596-0.407,20.209-1.103,29.243-4.664c10.605-4.183,18.284-12.442,20.042-21.562
					c1.668-8.654-1.346-17.97-9.474-29.248c-0.233-0.323-2.214-2.763-2.967-3.551c-0.497-0.52-1.12-1.171-1.455-1.604
					c-0.177-0.229-0.056-0.556,0.224-0.631c1.252-0.332,8.901,0.584,15.585,6.694c6.616,6.049,10.423,12.256,13.03,18.5
					c3.137,7.51,3.768,15.374,1.774,22.149c-2.962,10.064-11.993,19.412-23.86,23.066
					C236.735,119.245,225.985,120.17,217.338,118.968z"/>
				<path fill="#424141" d="M107.006,108.132c0.13,8.977,4.284,12.432,9.683,18.822c3.91,4.629,8.234,9.592,11.092,15.073
					c2.654,5.095,4.188,11.768,8.757,15.562c1.18-9.405-3.06-19.655-2.38-29.431c3.541-1.362,5.548-1.985,10.143-1.974
					c-0.532,10.511,6.652,17.5,11.144,25.604c3.513,6.34,9.876,8.902,15.35,11.754c7.833,4.076,16.417,6.399,23.999-0.808
					c8.674-8.248,13.793-20.251,27.406-19.931c4.722-4.388,0.759-13.99-5.59-15.427c-0.709-13.633-17.101-26.783-30.355-25.059
					c-17.513,8.017-45.199,2.815-59.837,1.629c1.251,3.723,6.911,7.961,9.758,11.011c-5.208-4.299-9.046-9.169-19.548-12.442
					c0.258,3.433,3.097,5.79,3.822,8.739c-7.237,2.22-5.727-4.717-7.756-8.807c-0.241,0.033-1.486,0.025-1.726-0.016
					c-0.867,4.256-0.775,8.314-3.318,11.496"/>
			</g>
			<path fill="#424141" d="M253.877,63.898c4.047-8.299-9.393-20.558-16.107-23.044c14.473-1.519,27.266,9.252,31.739,22.396
				c1.493,4.389,1.827,17.869-1.995,20.567c-0.414-2.137-1.311-4.304-2.559-6.213c-0.061,1.371-0.762,2.557-0.937,3.629
				c-0.899-1.745-2.11-4.151-2.917-5.8c-0.44,6.509-4.504,9.563-5.97,15.32c0.22-12.156,0.212-20.58-6.554-30.722
				c-4.73-7.094-10.943-13.731-17.84-17.908c3.622-0.229,8.233-0.713,11.543,0.516"/>
			<g>
				<path fill="#C5A771" d="M109.81,93.589c4.509,0.322,9.338,0.644,13.524,0c-3.542,0.966-7.407,2.254-10.948,2.897
					c1.933,0.322,3.864,0,5.796-0.321c-2.898,7.729-12.882,7.729-16.102,0.644c3.219-1.61,7.729-1.61,10.948-3.542"/>
			</g>
			<g>
				<path fill="#FFFFFF" d="M217.729,118.474c11.163,0,22.327,3.864,33.493,1.719c-1.717-0.859-3.435-1.719-5.583-2.148
					c3.866-0.859,7.3-2.146,10.736-4.293c-0.86,0.43-2.15,0.43-3.008,0.857c9.018-4.721,18.036-14.169,22.758-23.188
					c-1.287,1.289-3.436,2.148-4.295,3.437c1.29-3.865,3.438-7.729,6.014-11.595c-0.43,0.43-1.719,1.288-2.146,1.717
					c-1.289-3.003-0.429-6.439-0.429-9.875c-6.011,4.725-7.73,13.312-12.884,18.894c-4.293,5.152-10.734,11.166-17.174,13.741
					c-9.449,3.865-21.043,3.435-30.488,6.869c1.286,2.148,2.146,4.296,3.434,6.443"/>
			</g>
			<g>
				<path fill="#C5A771" d="M207.852,107.31c4.724-0.859,9.877-3.437,11.165-8.159c0,0.859,0.858,3.006,0.858,4.294
					c3.865,0.429,6.44-3.863,9.447-6.011c-0.431,1.286-0.431,2.576-0.859,3.865c1.718-2.148,3.006-4.725,4.294-6.872
					c-0.429,1.719,0,3.436,0,5.154c1.288-2.576,2.576-5.583,3.864-8.16c0,1.72,0.859,4.295,0.859,6.013
					c2.146-3.436,3.006-7.301,5.151-10.306c0,1.288,0.86,3.436,0.86,4.724c2.576-3.007,3.863-6.872,4.723-10.735
					c0,1.717,0.43,3.435,0.43,5.583c1.718-4.723,3.436-8.159,3.006-13.312c3.864,14.171,0.43,22.759-12.452,30.058
					c-5.153,3.006-11.165,5.584-16.747,7.729c-7.3,3.007-9.447,1.289-14.6-4.293"/>
			</g>
			<g>
				<path fill="#C5A771" d="M113.447,92.241c2.577,1.287,3.221,3.863,7.086,3.221c-1.933,2.576-5.153,4.494-8.374,4.494
					c2.576,1.933,5.153,3.496,8.374,4.496c-3.865,0-7.73,0-12.239,0c0,0,0,0,0.645,0c4.509-1,7.729-4,9.019-8
					c-3.866,0-6.442,0-9.663,0c-0.645,2-1.288,5.624-0.645,8.201"/>
			</g>
			<g>
				<path fill="#C5A771" d="M49.961,129.312c-0.85,6.837-6.807,12.914-15.316,14.434c3.403-0.761,7.658,0,11.913,0
					c-2.553,0.758-6.807,3.798-9.36,4.558c2.554-0.76,5.106-0.76,6.807-0.76c-2.553,3.038-7.658,6.077-11.062,7.596
					c2.552-0.76,7.66-0.76,9.361-1.519c-1.701,3.797-4.255,7.597-8.51,9.874c1.701-0.76,5.106-1.519,6.809-2.277
					c-0.851,0-1.703,3.036-2.554,3.797c0.851-0.761,3.403-3.038,4.255-3.797c0,1.518,0.851,3.797,0.851,5.316
					c7.658-11.395,14.465-27.347,14.465-41.019c-1.701,0-2.552,1.52-4.255,3.037"/>
			</g>
			<path fill="#91201B" d="M112.79,99.018c0,0-25.423,24.308-62.184,23.639c0,0-6.854,9.7-2.204,8.932
				c4.652-0.771,60.394-8.729,65.556-29.243C116.627,102.516,112.79,99.018,112.79,99.018z"/>
			<path fill="#A4A7AB" stroke="#000000" stroke-width="0.1829" stroke-miterlimit="10" d="M80.749,116.425
				c3.672-0.182,2.926,5.238,3.072,7.118c0.928,0.104,1.63-0.005,2.437-0.319c0.212-2.645,1.147-7.524-3.716-7.68
				c-0.515,0.609-0.554,1.229-0.503,1.503"/>
			<path fill="#A4A7AB" stroke="#000000" stroke-width="0.2147" stroke-miterlimit="10" d="M54.126,123.198
				c0.136-0.323,0.62-0.505,0.491-1.228c4.181-1.051,8.215-1.925,12.756-1.714c0.064,3.258,1.401,6.396,0.858,9.746
				c-4.201,0.367-8.919,2.405-13.171,1.708c-1.81-2.72-0.841-5.881-1.793-8.942 M55.534,123.751
				c0.666,2.142-0.013,4.354,1.254,6.256c2.976,0.489,6.277-0.938,9.217-1.194c0.377-2.342-0.557-4.539-0.603-6.819
				c-3.176-0.147-6,0.465-8.925,1.2c0.091,0.505-0.248,0.633-0.342,0.857"/>
			<path fill="#A4A7AB" stroke="#000000" stroke-width="0.2147" stroke-miterlimit="10" d="M56.03,126.114
				c1.666,0.555,3.549,0.486,5.097-0.29c1.392,2.531-2.762,3.808-4.727,3.462c0.149-0.853-0.246-1.949-0.097-2.801
				c-0.318-0.082-0.602,0.009-0.917-0.049"/>
		</g>
	</g>
	<g>
		<g>
			<path fill="#424141" d="M37.698,43.254c1.35-3.535-0.618-8.19,0.842-11.573c1.509-3.493,5.219-4.378,7.55-6.885
				c9.853-10.6,10.303-9.73,17.721-21.4c1.051,19.824,8.59,24.415,6.078,44.453c-0.937,7.483-16.789,29.27-26.06,19.165"/>
			<g>
				<g>
					<path fill="#C5A771" d="M108.361,76.703c-1.291-1.038-2.675-3.16-3.607-4.757l-0.276,0.103c0.196,1.091,0.543,2.257,0.828,3.13
						c-1.6-3.011-2.415-7.123-3.145-10.824c-0.558-2.823-1.087-5.492-1.879-6.993c-1.833-3.48-4.212-4.428-6.509-4.933
						c-1.145-0.25-4.405-0.781-7.002-1.191c0.705,0.055,1.457,0.117,2.204,0.182l0.346,0.028l-0.216-0.27
						c-0.954-1.194-4.342-5.323-7.941-8.337c-4.866-4.074-9.829-4.926-11.232-5.089c-1.695-0.197-4.06-0.287-5.526-0.326
						c0.366-0.089,0.734-0.192,0.986-0.298l0.33-0.141l-0.332-0.135c-2.817-1.141-5.057-1.778-6.852-1.947
						c-0.646-0.061-1.288-0.093-1.909-0.093c-2.988,0-5.14,0.702-6.68,1.313c-1.646,0.65-5.092,1.952-6.499,2.482l-0.359,0.134
						l0.356,0.143c1.159,0.464,2.06,1.623,2.626,2.54c-0.762-0.835-1.898-1.887-3.026-2.214c-0.403-0.117-0.832-0.177-1.275-0.177
						c-1.85,0-3.509,1.015-4.229,2.584c-0.35,0.766-0.669,1.498-0.979,2.207c-1.011,2.321-1.885,4.325-3.278,6.17
						c-0.398,0.527-1.082,1.111-1.877,1.791c-0.739,0.632-1.576,1.348-2.257,2.1c-1.384,1.529-1.769,4.806-1.936,7.137l-0.016,0.22
						l0.209-0.068c2.037-0.648,3.531-1.2,4.44-1.637c2.727-1.313,4.845-2.607,5.969-3.649l0.184-0.174l-0.241-0.076
						c-1.301-0.421-3.045-2.152-3.229-3.577c-0.188-1.452,0.331-3.022,1.496-4.499c0.04-0.049,1.151-1.363,2.247-2.094
						c0.913-0.613,1.814-0.904,2.331-0.904c0.149,0,0.269,0.025,0.348,0.071l0.234,0.14l-0.006-0.18
						c0.196,0.83,0.385,1.98,0.317,3.146c-0.154,2.587-1.029,5.146-2.604,7.601c-1.05,1.636-4.744,3.583-6.854,4.598
						c-1.642,0.792-4.362,1.645-5.836,2.084l-0.545,0.162l0.554,0.125c2.452,0.558,0.546,4.77,2.71,7.03
						c1.303,1.354,1.9,2.817,1.78,4.344c-0.244,3.11-3.788,6.464-7.023,8.565c-3,1.948-6.111,3.111-8.327,3.111
						c-0.405,0-0.817-0.053-1.255-0.159l-0.147-0.038l-0.033,0.148c-0.246,1.127-1.009,4.936-0.443,6.633
						c0.308,0.926,0.98,1.538,1.916,2.39c1.075,0.978,2.413,2.193,3.822,4.453c2.772,4.448,8.033,9.863,12.042,11.227
						c1.051,0.357,2.277,0.538,3.643,0.538c0.001,0,0,0,0.001,0c3.743,0,13.209-4.121,14.688-4.633
						c4.907-1.695,14.977-10.285,20.365-16.544l0.13-0.149l0.834,0.693l-0.105,0.224c-1.439,3.069-5.562,9.321-7.707,12.482
						c-3.656,5.392-10.847,11.974-16.654,16.21c-3.948,2.881-13.702,7.993-17.007,8.244c-5.621,0.427-9.026-3.445-9.986-4.965
						c-1.01-1.6-0.844-2.323-0.384-3.218c0.412-0.802,2.878-4.222,4.306-6.263c1.429-2.039,2.726-4.881,2.726-4.881l-1.625-1.633
						c-0.337,1.377-1.682,4.239-2.437,5.638c-0.755,1.401-3.525,5.198-4.387,6.462c-0.859,1.264-1.357,1.283-1.864,3.561
						c-0.338,1.516,0.503,3.573,2.061,5.127c1.454,1.451,5.316,3.854,8.899,4.477c3.583,0.62,8.117-1.865,8.117-1.865
						c2.085-1.207,9.612-5.359,11.558-6.732c1.738-1.049,3.908-2.469,6.045-3.87c0.144-0.093,0.296-0.193,0.454-0.294
						c1.329-0.762,2.513-1.379,2.513-1.379s0.543-0.365,1.395-1.097c1.78-1.097,3.489-2.103,4.373-2.513
						c1.739-0.807,4.653-1.465,6.581-1.902l0.415-0.094c2.113-0.482,5.923-2.227,8.824-4.514l0.074-0.058l-0.02-0.091
						c-0.674-2.976,18.488,0.523,24.969-9.506c0.71-1.098,7.223-2.729,8.39-4.438c1.579-2.307-2.009-4.643,0.254-4.904
						c-3.431-1.831,0.421-5.972,1.25-4.525c1.547,2.694-3.674-6.783-3.674-6.783 M64.134,66.092c-0.624,0-1.23-0.063-1.757-0.182
						c-2.169-0.488-4.076-1.812-4.768-2.532c-0.29-0.299-0.75-0.441-1.196-0.58c-0.659-0.203-1.061-0.354-1.076-0.74
						c-0.019-0.451,0.233-0.585,0.614-0.792c0.287-0.152,0.609-0.327,0.856-0.678c0.081-0.112,0.191-0.306,0.333-0.558
						c0.821-1.452,2.742-4.858,6.472-5.446l0.204-0.033l-0.095-0.183c-0.126-0.248-0.263-0.475-0.408-0.691
						c4.272,3.527,5.201,9.18,5.199,10.229C68.51,65.341,66.308,66.092,64.134,66.092z"/>
					<g>
						<path fill="#424141" d="M49.904,64.423c0.955-7.333,1.275-6.695,7.015-10.84c6.059-4.145,7.332-8.928,11.478,0.318
							c2.87,7.015,6.695,13.392-1.276,17.217c-7.332,3.188-15.622,1.595-16.261-7.333"/>
					</g>
					<path fill="#FFFFFF" d="M57.288,61.548c-0.025,0.517,0.256,1.098,0.814,1.684c1.122,1.179,3.496,2.445,6.056,2.445
						c0.001,0,0.001,0,0.001,0c1.024,0,1.964-0.21,2.79-0.622c0.716-0.355,1.002-1.307,0.835-2.748
						c-0.315-2.729-2.339-6.896-3.901-7.267c-0.145-0.035-0.302-0.051-0.465-0.051C61.121,54.989,57.435,58.506,57.288,61.548z"/>
					<path fill="#CECECC" d="M67.525,60.974c-0.667-2.581-2.319-5.62-3.642-5.934c-0.145-0.035-0.302-0.051-0.465-0.051
						c-0.516,0-1.104,0.184-1.705,0.496C64.581,55.663,66.526,58.386,67.525,60.974z"/>
					<path fill="#FFFFFF" d="M38.06,55.511l0.099,0.041l0.071-0.081c0.11-0.126,0.217-0.253,0.291-0.371
						c1.743-2.716,2.694-6.256,2.675-9.968V45.04c0,0-0.603-0.34-1.496-0.131c-0.685,0.16-1.591,0.777-2.224,1.298
						c-0.488,0.401-1.156,1.061-1.767,1.967c-0.689,1.026-0.964,2.21-0.916,3.255C34.912,53.938,37.116,55.119,38.06,55.511z"/>
					<path fill="#CECECC" d="M41.095,48.124c0.179-1.109,0.105-1.828,0.1-2.992V45.04c0,0-0.603-0.34-1.496-0.131
						c-0.29,0.068-0.62,0.221-0.953,0.411C39.389,45.188,41.104,45.59,41.095,48.124z"/>
					<path fill="#BCA176" d="M60.298,53.555c-1.926,1.71-2.838,4.709-3.605,6.268c-0.447,0.909-1.825,1.278-1.445,2.489
						c0.066,0.203,0.871,0.07,1.892,0.459c0.687,0.262,1.262,1.293,2.021,1.668c2.96,1.466,6.495,2.576,9.162,0.422
						c1.458-1.178-0.726-8.048-2.601-10.401C64.151,52.483,62.946,51.204,60.298,53.555z M64.134,66.092
						c-0.624,0-1.23-0.063-1.757-0.182c-2.169-0.488-4.076-1.812-4.768-2.532c-0.29-0.299-0.75-0.441-1.196-0.58
						c-0.659-0.203-1.061-0.354-1.076-0.74c-0.019-0.451,0.233-0.585,0.614-0.792c0.287-0.152,0.609-0.327,0.856-0.678
						c0.081-0.112,0.191-0.306,0.333-0.558c0.821-1.452,2.742-4.858,6.472-5.446l0.204-0.033l-0.095-0.183
						c-0.126-0.248-0.263-0.475-0.408-0.691c4.272,3.527,5.201,9.18,5.199,10.229C68.51,65.341,66.308,66.092,64.134,66.092z"/>
					<path fill="#BCA176" d="M34.507,51.66c-0.055-1.338,0.463-2.757,1.522-4.099c0.04-0.049,1.151-1.363,2.247-2.094
						c0.913-0.613,1.814-0.904,2.331-0.904c0.149,0,0.269,0.025,0.348,0.071l0.234,0.14c0,0-0.025-0.863-0.225-1.466
						C40.663,42.396,34.092,46.07,34.507,51.66z"/>
					<path fill="#C5A771" d="M31.85,59.537c2.727-1.313,4.845-2.607,5.969-3.649l0.184-0.174l-0.241-0.076
						c-1.183-0.383-2.719-1.848-3.13-3.18c-0.645-0.811-1.065-1.771-1.089-2.824c-0.084,0.121-0.167,0.242-0.256,0.361
						c-0.398,0.527-1.082,1.111-1.877,1.791c-0.739,0.632-1.576,1.348-2.257,2.1c-1.384,1.529-7.157,7.577-7.324,9.907l5.373-2.551
						l0.209-0.068C29.446,60.525,30.941,59.974,31.85,59.537z"/>
					<path fill="#424141" d="M13.861,84.685c0.421,0.148,0.916,0.225,1.477,0.225l0,0c2.148,0,5.177-1.135,8.103-3.035
						c3.952-2.568,6.629-5.796,6.82-8.223c0.109-1.397-0.449-2.743-1.656-4.004c-2.767-2.887-2.347-7.156-4.315-7.156l-0.137,0.001
						c-1.388,0.05-12.638,4.913-14.219,7.529c-0.958,1.581-1.006,6.396,0.363,10.229C10.888,81.907,11.988,84.02,13.861,84.685z"/>
					<path fill="#212121" d="M24.447,74.297c-1.729-0.284-3.25-1.771-4.741-2.612c-2.647-1.498-5.57-2.906-8.584-2.317
						c-0.29,0.056-0.676,0.149-0.964,0.243c-0.071,0.097-0.166,0.312-0.224,0.411c-0.958,1.581-1.006,6.396,0.363,10.229
						c0.592,1.656,1.692,3.769,3.565,4.434c0.421,0.148,0.916,0.225,1.477,0.225l0,0c2.148,0,5.177-1.135,8.103-3.035
						c3.952-2.568,6.629-5.796,6.82-8.223c0.045-0.595-0.036-1.178-0.229-1.752c-0.379,0.325-0.79,0.657-1.205,0.959
						C27.491,73.826,26.003,74.552,24.447,74.297z"/>
					<path fill="#424141" d="M10.676,94.538l0.394-0.415c0.693-0.729,1.41-1.483,1.929-1.898l0.08-0.064l-0.031-0.099
						c-0.602-1.856,0.196-5.766,0.455-6.92l0.025-0.119l-0.11-0.051c-1.483-0.66-2.708-2.24-3.539-4.57
						c-0.439-1.227-0.766-2.668-0.942-4.173l-0.06-0.512l-0.222,0.464c-0.771,1.621-2.602,5.649-2.956,8.051
						c-0.45,3.073,1.605,11.425,2.079,12.656l0.047,0.122l0.127-0.031C8.423,96.861,9.505,95.76,10.676,94.538z"/>
					<path fill="#282828" d="M13.417,84.972c-1.483-0.66-2.708-2.24-3.539-4.57c-0.075-0.207-0.14-0.425-0.207-0.645
						c0.398,3.479,2.685,6.002,2.039,9.824c-0.445,2.631-2.276,4.385-4.375,5.81c0.145,0.552,0.272,0.994,0.366,1.282
						c0.932-0.844,1.863-1.676,2.755-2.574c0.78-0.785,1.513-1.754,2.544-2.219c-0.502-1.915,0.25-5.62,0.501-6.738l0.025-0.119
						L13.417,84.972z"/>
					<path fill="#BCA176" d="M40.144,56.024c0.167,0,4.119,0.03,7.144,2.812C45.022,57.444,42.646,56.483,40.144,56.024z"/>
					<path fill="#FFFFFF" d="M24.734,74.718c-0.942-0.172-1.755-0.729-2.474-1.217c-1.839-1.246-3.5-2.376-5.385-3.064
						c-3.053-1.114-5.754-1.069-5.754-1.069c1.85-0.563,4.444-0.236,6.024,0.376c1.943,0.754,3.655,1.87,5.533,3.144
						c0.688,0.468,1.398,0.978,2.19,1.1c1.517,0.235,3.958-1.128,3.958-1.128S26.423,75.023,24.734,74.718z"/>
					<path fill="#FFFFFF" d="M20.808,82.364c-1.157-0.099-2.276-0.809-2.986-1.727c-0.712-0.918-0.946-2.004-0.828-3.191
						c0,0,0.146,1.762,1.064,2.962C18.976,81.608,20.808,82.364,20.808,82.364z"/>
					<path fill="#FFFFFF" d="M10.376,79.046c1.491,0.257,2.085,0.008,2.272-2.023C12.222,78.76,11.627,79.002,10.376,79.046z"/>
					<path fill="#782E1E" d="M66.982,58.824c-1.684-1.739-4.451-1.878-6.295-0.269c-1.784,1.557-2.072,4.19-0.738,6.086
						c0.09,0.129,2.373,1.022,4.795,1.291c0.69-0.168,1.391,0.025,1.963-0.473c0.87-0.761,1.38-1.774,1.523-2.836
						C67.836,61.352,67.468,60.057,66.982,58.824z"/>
					<path fill="#5B2317" d="M66.982,58.824c-1.684-1.739-4.451-1.878-6.295-0.269c-0.521,0.454-0.909,1-1.172,1.592
						c1.439-0.545,3.465-0.087,4.774,0.519c1.51,0.698,2.663,1.899,3.56,3.271c0.195-0.421,0.318-0.868,0.379-1.32
						C67.833,61.346,67.466,60.057,66.982,58.824z"/>
					<circle fill="#111111" cx="63.697" cy="62.008" r="2.852"/>
					<circle fill="#FFFFFF" cx="61.925" cy="59.975" r="1.116"/>
					<path fill="#782E1E" d="M38.289,55.747c1.705-2.598,2.527-4.924,2.996-8.071c-1.819-0.417-3.854,0.587-4.851,2.529
						c-0.832,1.618-0.714,3.446,0.158,4.724C36.854,55.313,37.972,55.768,38.289,55.747z"/>
					<path fill="#5B2317" d="M40.632,50.648c0.279-0.935,0.495-1.918,0.652-2.973c-1.819-0.417-3.854,0.587-4.851,2.529
						c-0.316,0.613-0.491,1.257-0.543,1.89c1.08-1.066,2.958-1.481,4.264-1.473C40.316,50.624,40.474,50.634,40.632,50.648z"/>
					<path fill="#111111" d="M38.735,54.593c0.058,0.029,0.118,0.042,0.176,0.067c0.959-1.682,1.621-3.379,2.054-5.284
						c-1.17-0.355-2.523,0.264-3.172,1.526C37.072,52.306,37.494,53.956,38.735,54.593z"/>
					
						<ellipse transform="matrix(0.6579 0.7531 -0.7531 0.6579 50.4741 -11.4323)" fill="#FFFFFF" cx="37.82" cy="49.836" rx="1.007" ry="1.116"/>
					<path fill="#FFEAC2" d="M86.058,51.682c0,0,7.314,0.826,9.265,1.806c0.984,0.494,3.347,1.959,4.289,4.058
						c2.738,6.106,1.526,10.207,4.805,17.471c-4.222-6.713-2.919-11.161-5.698-17.023c-1.099-2.315-2.845-3.354-3.826-3.836
						C92.68,53.068,86.058,51.682,86.058,51.682z"/>
					<path fill="#FFEAC2" d="M67.268,84.16c0,0,5.437,1.334,6.889,3.968C73.162,84.156,67.268,84.16,67.268,84.16z"/>
					<path fill="#FFEAC2" d="M28.035,61.859c0,0,8.757-2.793,11.063-6.111c3.205-4.61,2.813-10.076,2.813-10.076
						s1.104,5.892-2.284,10.241C36.51,59.915,28.035,61.859,28.035,61.859z"/>
					<path fill="#FFEAC2" d="M48.645,57.606c0,0,3.46-5.497,7.619-6.783C51.186,50.787,48.645,57.606,48.645,57.606z"/>
					<path fill="#BCA176" d="M32.28,53.933c0,0,0.322,2.921,2.825,4.001l-3.75,2.126C31.355,60.06,31.228,56.554,32.28,53.933z"/>
					<path fill="#FFEAC2" d="M57.727,64.034c0,0,4.039,4.393,9.699,1.898C61.496,67.63,57.727,64.034,57.727,64.034z"/>
					<path fill="#FFEAC2" d="M34.088,52.095c0,0,0.847,2.855,3.355,3.764C34.463,55.438,34.088,52.095,34.088,52.095z"/>
					<path fill="#FFEAC2" d="M61.562,48.476c0,0,2.801-1.049,4.911-0.292c2.11,0.756,3.683,5.279,3.683,5.279
						s-1.864-3.837-3.93-4.608C64.16,48.079,61.562,48.476,61.562,48.476z"/>
					<path fill="#FFEAC2" d="M38.587,40.829c0,0,1.46-1.516,3.306-1.478c1.844,0.037,3.375,1.736,3.375,1.736
						s-1.51-1.12-3.399-1.191C39.982,39.825,38.587,40.829,38.587,40.829z"/>
					<path fill="#FFEAC2" d="M47.336,37.795c0,0,4.53-2.199,7.904-2.453c4.055-0.306,8.729,1.381,8.729,1.381
						s-4.628-1.201-8.783-0.808C51.566,36.26,47.336,37.795,47.336,37.795z"/>
					<path fill="#FFEAC2" d="M62.714,37.915c0,0,5.718-0.067,8.823,0.653c3.106,0.72,5.987,2.099,8.532,4.141
						c3.493,2.805,7.883,7.719,7.883,7.719s-6.378-5.744-8.285-7.052c-1.909-1.308-5.04-3.295-8.435-4.182
						C68.12,38.382,62.714,37.915,62.714,37.915z"/>
					<path fill="#57222B" d="M59.988,106.66l-3.788-2.778c0,0-5.373,2.745-8.296,3.869c-2.924,1.123-11.855,3.668-15.42,3.469
						c-3.564-0.2-6.253-3.885-6.253-3.885s-1.648,3.469-2.493,4.858c-0.846,1.391-3.29,4.779-4.093,5.972
						c-0.803,1.191-1.487,1.964-0.183,4.202c1.304,2.236,4.63,3.954,8.821,4.521c4.192,0.564,13.551-5.183,18.639-8.451
						C52.011,115.168,59.988,106.66,59.988,106.66z"/>
					<path fill="#D494A2" d="M55.931,102.429c0,0,3.952,0.816,4.993,3.03l-1.114,1.226c0,0-2.696,0.855-4.977,1.852
						c-2.279,0.992-3.342,1.65-5.116,2.947c-1.776,1.295-3.673,3.329-4.706,4.905c-1.034,1.577-7.328,5.62-8.765,6.677
						c-1.437,1.056-2.787,2.079-3.45,2.484c-0.666,0.405-7.187-0.97-9.005-2.853c-1.817-1.884-1.285-3.403-0.825-4.301
						s1.808-2.269,2.326-3.583c0.52-1.311,1.741-5.437,2.391-6.42c0,0,1.804,1.529,4.239,1.939
						c2.437,0.41,11.159-2.385,14.261-3.227C49.286,106.267,53.326,104.059,55.931,102.429z"/>
					<path fill="#A3727D" d="M56.59,101.96c-4.206,3.179-7.304,4.307-10.408,5.146c-3.102,0.842-11.913,3.623-14.349,3.212
						c-2.434-0.41-4.153-1.781-4.153-1.781c-0.27,0.409-0.799,1.738-1.136,2.676c1.648-0.301,3.802,0.682,4.994,1.47
						c0.85,0.562,0.854,0.738,1.889,1.002c1.445,0.363,8.23-1.746,9.408-0.82c2.12,1.667,1.487,3.012,0.002,4.927
						c-1.768,2.279-9.288,6.399-11.492,7.747c0.742,0.103,1.281,0.114,1.45,0.012c0.663-0.405,2.013-1.429,3.45-2.484
						c1.437-1.057,7.73-5.1,8.765-6.677c1.033-1.576,3.438-3.999,5.214-5.295c1.774-1.296,4.402-2.495,6.683-3.488
						c2.28-0.993,2.902-0.921,2.902-0.921l1.114-1.226C59.883,103.245,56.59,101.96,56.59,101.96z"/>
					<path fill="#FFEAC2" d="M64.051,101.23c-1.375,2.087-3.288,4.741-5.448,7.013c-1.881,1.976-7.219,6.917-11.801,10.384
						c-3.263,2.467-11.861,6.73-12.2,6.858c-0.814,0.308-3.593,1.403-5.158,1.594c-1.564,0.191-3.361-0.365-4.926-0.874
						c-1.564-0.51-3.81-2.545-5.056-3.838c-0.631-0.655-0.848-2.676-0.819-3.28c-0.917,1.529-0.432,2.848,0.413,4.009
						c1.801,2.477,5.702,4.949,9.085,4.89c5.128-0.093,15.208-5.917,18.471-8.385c4.583-3.466,10.075-8.334,11.957-10.31
						c2.362-2.479,7.658-9.29,9.748-14.065C68.257,95.091,64.107,101.367,64.051,101.23z"/>
					<path fill="#BCA176" d="M23.679,112.192c1.305-1.984,2.622-4.777,2.622-4.777l-1.754-1.509
						c-0.25,1.023-1.124,3.083-1.831,4.538C23.181,110.818,23.484,111.504,23.679,112.192z"/>
					<path fill="#FFFFFF" d="M26.56,122.868l-0.064-0.054c-0.376-0.333-0.795-0.634-1.178-0.848
						c-0.146-0.081-0.292-0.152-0.429-0.209c-0.094-0.036-0.199-0.032-0.292,0.011c-0.094,0.042-0.165,0.122-0.193,0.216
						c-0.359,1.079-0.225,2.611,0.246,2.874l0.046,0.021c0.589,0.229,1.382-0.238,1.675-0.5l0.048-0.046l0.001-0.068
						c0.007-0.532,0.085-1.046,0.126-1.313L26.56,122.868z"/>
					<path fill="#FFFFFF" d="M20.611,121.492c0.021,0.401,0.36,0.592,0.618,0.659c0.321,0.082,0.651,0.037,0.978,0.014l0.009-0.056
						c0.118-0.636,0.383-1.33,0.583-1.799l0.033-0.08l-0.049-0.071c-0.333-0.468-0.651-0.782-0.999-0.976c0-0.002,0-0.002,0-0.002
						c-0.161-0.085-0.367-0.024-0.453,0.132C20.984,119.947,20.651,120.997,20.611,121.492z"/>
					<path fill="#57222B" d="M30.004,126.351c-0.387-0.308-0.704-0.824-0.8-1.32l-0.069-0.347l-0.207,0.284
						c-0.292,0.395-1.051,1.284-1.847,0.995c-0.036-0.015-0.073-0.03-0.105-0.049c-0.291-0.163-0.471-0.538-0.531-1.113
						l-0.028-0.262l-0.216,0.152c-0.364,0.257-0.926,0.517-1.533,0.28c-0.027-0.013-0.055-0.026-0.083-0.039
						c-0.309-0.172-0.474-0.6-0.488-1.271l-0.005-0.225l-0.208,0.084c-0.346,0.143-0.856,0.254-1.325-0.008
						c-0.047-0.026-0.093-0.054-0.14-0.089c-0.226-0.165-0.306-0.524-0.242-1.063l0.016-0.123c-0.459,0.035-0.919,0.078-1.343-0.146
						c-0.338-0.179-0.341-0.695-0.229-1.172l0.062-0.253l-0.251,0.066c-0.298,0.078-0.555,0.062-0.818-0.086l-0.012-0.007
						c-0.186-0.126-0.293-0.32-0.309-0.565l-0.308-0.008c-0.08,0.621-0.266,2.074,3.815,4.937c0.282,0.193,0.568,0.376,0.862,0.538
						c1.897,1.061,4.032,1.441,6.343,1.134l0.31-0.099L30.004,126.351z"/>
					<path fill="#FFFFFF" d="M27.076,125.809l0.051,0.026c0.22,0.098,0.47,0.084,0.73-0.035c0.526-0.249,1.034-0.934,1.238-1.666
						c0.042-0.154-0.026-0.318-0.178-0.404c-0.634-0.332-1.36-0.569-1.938-0.634c-0.199-0.021-0.391,0.129-0.418,0.329
						C26.401,124.648,26.593,125.539,27.076,125.809z"/>
					<path fill="#FFFFFF" d="M24.413,121.483l-0.05-0.06c-0.332-0.415-0.726-0.758-1.112-0.975l-0.093-0.049
						c-0.076-0.038-0.163-0.045-0.246-0.015c-0.091,0.031-0.162,0.1-0.2,0.186c-0.165,0.367-0.946,2.231-0.165,2.822
						c0.037,0.03,0.076,0.054,0.114,0.076c0.462,0.258,1.037,0.104,1.341-0.014l0.093-0.035l0.004-0.102
						c0.036-0.713,0.203-1.418,0.292-1.76L24.413,121.483z"/>
					<path fill="#FFFFFF" d="M19.829,120.564c0.204,0.113,0.47,0.139,0.791,0.075l0.086-0.019l0.029-0.083
						c0.183-0.521,0.467-1.059,0.685-1.46c0.024-0.02,0.103-0.042,0.133-0.036c0.094,0.021,0.191,0.06,0.289,0.115
						c0.152,0.085,0.31,0.21,0.484,0.381l0.263,0.26l0.001-0.37c0-0.027,0.008-2.881-0.606-3.224l-0.067-0.028l-0.022-0.005
						c-0.139-0.031-0.363,0.014-0.877,0.649c-0.704,0.864-1.808,2.739-1.509,3.39C19.579,120.367,19.688,120.485,19.829,120.564z"/>
					<path fill="#FFFFFF" d="M32.887,114.024c-0.917,1.035-1.079,2.088-1.93,3.529C31.85,116.349,32.179,115.292,32.887,114.024z"/>
					<path fill="#FFFFFF" d="M30.697,126.566c1.126-0.107,1.875-0.66,1.999-1.481c0.175-1.148-0.197-3.504-0.887-3.889
						c-0.038-0.022-0.076-0.038-0.116-0.046c-0.139-0.037-0.297,0.013-0.472,0.147c-0.763,0.592-1.868,2.828-1.868,3.412
						c0.002,0.467,0.45,1.312,0.876,1.646c0.046,0.036,0.1,0.073,0.161,0.107C30.478,126.513,30.567,126.546,30.697,126.566z"/>
					<path fill="#B7BDC2" d="M20.895,121.658c-0.042-0.104-0.056-0.351-0.056-0.458c0.082,0.24,0.219,0.538,0.532,0.47
						c0.691-0.151,1.07-0.972,1.26-1.606c0.025,0.031,0.05,0.058,0.075,0.092l0.041,0.056l-0.023,0.064
						c-0.161,0.466-0.369,1.555-0.591,1.839C21.625,122.128,21.074,122.099,20.895,121.658z"/>
					<path fill="#B7BDC2" d="M27.298,125.202l0.041,0.02c0.184,0.082,0.393,0.063,0.608-0.054c0.395-0.22,0.801-0.751,1.018-1.106
						c-0.151,0.668-0.562,1.304-0.997,1.545c-0.215,0.117-0.424,0.137-0.606,0.055l-0.043-0.021
						c-0.327-0.183-0.504-0.739-0.507-1.526C26.869,124.667,27.036,125.055,27.298,125.202z"/>
					<path fill="#B7BDC2" d="M30.941,125.766c0.371-0.07,1.091-0.807,1.135-1.883c0.013-0.314-0.067-1.444-0.293-2.286
						c0.621,0.944,0.64,2.441,0.662,2.657c0.038,0.387-0.022,1.273-0.25,1.608c-0.262,0.385-0.39,0.333-0.744,0.458
						c-0.47,0.165-1.306-0.58-1.422-0.739C30.062,125.604,30.424,125.864,30.941,125.766z"/>
					<path fill="#B7BDC2" d="M23.281,122.928c0.454-0.226,0.771-1.187,0.89-1.531c0.026-0.09,0.109-0.022,0.131,0.002l0.038,0.048
						l-0.025,0.135c-0.042,0.217-0.176,0.979-0.165,1.74l-0.13,0.004c-0.285,0.117-0.752,0.146-1.126-0.076
						c-0.325-0.192-0.401-0.631-0.388-1.091C22.563,122.63,22.775,123.182,23.281,122.928z"/>
					<path fill="#B7BDC2" d="M26.239,122.817l0.195,0.105c-0.011,0.229-0.03,0.71,0.022,1.213l0.005,0.053l-0.191,0.15
						c-0.988,0.632-1.564,0.507-1.787-0.607c0.273,0.742,0.824,0.742,1.116,0.441C26.022,123.742,26.233,122.946,26.239,122.817z"/>
					<path fill="#B7BDC2" d="M21.554,119.038c-0.033-0.008-0.121,0.018-0.139,0.037c-0.179,0.382-0.396,0.874-0.546,1.365
						c-0.138,0.014-0.672,0.111-0.959-0.229c-0.149-0.172-0.124-0.481-0.052-0.819c0.128,0.507,0.537,0.758,1.066,0.128
						c0.626-0.745,1.042-1.865,0.871-2.924c0.458,0.738,0.569,2.959,0.569,2.959c-0.186-0.179-0.351-0.31-0.512-0.397
						C21.751,119.102,21.65,119.061,21.554,119.038z"/>
					<path fill="#FFFFFF" d="M29.38,119.807c-0.245,0.135-0.784,0.892-0.551,0.795C29.063,120.504,29.628,119.671,29.38,119.807z"/>
					<path fill="#A3727D" d="M20.228,121.844c0,0,0.251,0.926,1.376,0.744C20.168,123.071,20.228,121.844,20.228,121.844z"/>
					<path fill="#A3727D" d="M19.206,120.646c0,0,0.311,0.537,0.934,0.451C19.397,121.398,19.206,120.646,19.206,120.646z"/>
					<path fill="#A3727D" d="M21.876,123.221c0,0,0.298,0.943,1.336,0.803C22.022,124.6,21.876,123.221,21.876,123.221z"/>
					<path fill="#A3727D" d="M23.979,124.641c0,0,0.405,0.926,1.458,0.712C24.271,126.017,23.979,124.641,23.979,124.641z"/>
					<path fill="#A3727D" d="M26.34,125.681c0,0,0.493,0.881,1.52,0.564C26.765,127.021,26.34,125.681,26.34,125.681z"/>
					<path fill="#A3727D" d="M29.156,125.79c0,0,0.104,0.405,0.59,0.669l-0.367-0.005C29.379,126.454,29.157,126.171,29.156,125.79z
						"/>
					<path fill="#381000" d="M71.223,55.986c-0.068-0.216-0.425-1.442-0.542-1.819c-0.693-2.251-1.925-5.561-4.01-6.309
						c-2.742-0.985-6.462,0.909-6.462,0.909c0.146-0.11,3.593-2.73,6.712-1.609c2.419,0.868,3.713,4.316,4.468,6.774
						c0.116,0.38,0.477,1.618,0.543,1.83c0.559,1.758,1.402,3.314,1.412,3.33C73.343,59.093,71.804,57.812,71.223,55.986z"/>
					<path fill="#381000" d="M14.046,82.825c-0.21-3.603,0.36-7.26,1.651-10.58C14.812,75.494,14.263,79.021,14.046,82.825z"/>
					<path fill="#381000" d="M64.675,67.161c-2.242-0.054-4.5-0.771-6.358-2.022C60.061,66.657,62.134,67.437,64.675,67.161z"/>
					<path fill="#381000" d="M36.276,56.107c-1.019-0.765-1.864-1.766-2.451-2.895C34.217,54.551,35.015,55.529,36.276,56.107z"/>
					<path fill="#381000" d="M57.5,63.479c0.625,0.65,2.538,2.057,4.844,2.575c2.444,0.552,6.313-0.114,6.316-2.148
						c0.001-1.005-1.013-7.62-6.292-11.112c0.585,0.561,0.954,1.127,1.22,1.643c-4.437,0.699-6.353,5.293-6.902,6.066
						c-0.55,0.774-1.539,0.63-1.501,1.562C55.222,62.955,56.875,62.83,57.5,63.479z M63.85,55.185
						c2.091,0.494,5.354,8.581,3.034,9.737c-3.926,1.956-9.55-1.274-9.449-3.366C57.587,58.432,61.661,54.668,63.85,55.185z"/>
					<path fill="#381000" d="M20.495,79.894c0.339-0.559,0.942-1.131,1.163-1.998c0.318-1.238-0.333-2.211-1.163-2.625
						c-1.547-0.771-3.163,0.285-3.184,1.97c-0.01,0.914,0.047,2.009,1.642,3.55c1.594,1.54,4.065,1.574,4.065,1.574l1.326-0.912
						C21.875,82.854,19.978,80.747,20.495,79.894z"/>
					<path fill="#381000" d="M9.582,78.22c0,0,1.155-0.009,0.912-0.927c-0.522-1.987-1.059-4.544,0.488-4.258
						c1.312,0.243,1.83,2.729,1.321,4.448c-0.404,1.363-1.672,1.365-2.476,1.206C9.024,78.53,9.582,78.22,9.582,78.22z"/>
					<path fill="#381000" d="M36.476,110.919c0,0-3.073,1.328-4.274,3.682c-1.202,2.354-2.024,4.591-4.42,6.392
						c2.743-2.87,2.874-4.292,4.027-6.583c1.154-2.292,4.051-3.586,4.051-3.586L36.476,110.919z"/>
					<path fill="#424141" d="M76.935,107.007c-2.823,2.225-6.566,3.984-8.765,4.485c-1.947,0.444-5.142,1.134-7.025,2.008
						c-0.68,0.315-1.843,0.979-3.168,1.776c-1.171,0.705-7.279,4.313-10.181,6.413c-2.25,1.63-9.622,5.708-12.259,7.188
						c-1.018,0.571-3.235,1.668-4.879,2.016c-4.769,1.005-10.081-1.758-13.008-4.788c-1.134-1.175-2.522-4.43-0.584-6.631
						c0.605-0.689,5.941-7.932,7.761-13.263c-0.138-0.2-0.277-0.402-0.417-0.604c-1.992,6.317-7.262,12.825-7.836,13.476
						c-2.035,2.313-0.946,5.881,0.583,7.464c1.131,1.172,2.559,2.285,4.159,3.177c2.842,1.59,6.23,2.503,9.45,1.784
						c1.823-0.407,3.589-1.263,4.789-1.931c2.489-1.385,10.204-5.691,12.51-7.278c2.938-2.02,10.054-6.232,10.307-6.384
						c1.279-0.77,2.388-1.402,3.005-1.69c1.5-0.697,4.319-1.407,6.959-2.009c2.246-0.512,5.806-2.168,8.791-4.429 M76.835,96.672
						 M103.668,68.603c-0.345-1.451-0.641-2.928-0.921-4.343c-0.593-3.002-1.105-5.594-1.939-7.177
						c-1.954-3.704-4.587-4.726-6.908-5.234c-0.731-0.16-2.235-0.332-3.892-0.486c-0.644-0.817-4.551-5.702-8.461-8.977
						c-4.995-4.182-10.103-5.057-11.55-5.225c-0.959-0.112-1.951-0.186-2.827-0.232c-1.247-0.567-5.292-2.305-8.578-2.615
						c-1.133-0.108-2.158-0.112-3.104-0.057c-0.687-0.492-7.271,2.5-7.891,2.293c-0.574-0.191-3.883,1.245-10.155,3.533
						c-1.734,8.091-9.378,12.873-9.408,13.683c-0.085,2.437-7.716,9.281-7.716,9.281c-2.092,0.905-9.914,5.046-10.895,6.667
						c-0.614,1.016-0.857,2.938-0.756,5.066c-0.709,1.451-3.151,6.598-3.558,9.365c-0.478,3.258,1.675,11.9,2.138,13.02
						c0.092,0.224,0.264,0.368,0.481,0.409c0.041,0.007,0.084,0.011,0.126,0.011c0.692,0,1.662-0.977,3.25-2.637
						c0.793-0.83,1.611-1.682,2.156-2.064c0.408,0.686,1.013,1.235,1.731,1.89c1.048,0.952,2.351,2.137,3.718,4.328
						c0.575,0.924,4.136,5.456,5.899,7.135c1.763,1.677,5.086,4.914,10.288,4.908c3.851-0.005,13.324-4.123,14.885-4.662
						c1.7-0.588,4.006-1.987,6.518-3.818c0.214-0.157,3.183-2.457,3.564-2.771c3.797-3.124,7.65-6.805,10.363-9.919
						c-2.461,5.926-8.549,14.295-9.244,15.094c-1.499-2.396-4.086-3.191-4.086-3.191l-0.584,0.312c0,0,3.294,1.316,4.215,3.396
						c-0.206,0.228-0.671,0.724-0.671,0.724c-2.429,0.803-5.732,2.13-7.59,3.126c-3.03,1.623-6.682,5.198-7.877,7.416
						c-1.271,2.355-11.172,8.113-11.392,8.161c0.02-0.442-0.096-1.401-0.182-1.9c-0.186-1.084-0.498-2.1-1.07-2.237
						c-0.353-0.086-0.708,0.081-1.056,0.496c-0.387,0.46-0.985,1.357-1.354,2.189c-0.815-0.385-1.637-0.674-2.472-0.848
						c-0.029-0.027-0.062-0.057-0.097-0.087c-0.432-0.372-1.491-0.964-2.058-1.272c-0.564-0.602-1.118-1.1-1.635-1.28
						c-0.295-0.925,0.363-2.078,0.989-2.896c0.447-0.585,1.304-1.629,1.789-2.922c0.084-0.224,0.187-0.547,0.31-0.938
						c0.28-0.883,1.201-3.342,1.751-4.53c-0.182-0.12-0.355-0.249-0.521-0.383c-0.606,1.271-1.559,3.823-1.855,4.763
						c-0.121,0.376-0.22,0.689-0.3,0.906c-0.448,1.188-1.242,2.155-1.678,2.728c-0.346,0.455-0.567,0.841-0.728,1.173
						c-0.089-0.869-0.303-1.813-0.789-2.017c-0.149-0.062-0.395-0.088-0.724,0.14c-0.022,0.018-0.046,0.038-0.068,0.059
						c1.128-1.286,3.836-5.444,5.196-8.471c-0.147-0.162-0.289-0.328-0.426-0.501c-1.636,3.846-5.691,9.226-6.605,10.603
						c-0.308,0.462-0.543,0.819-0.7,1.062c-0.801,1.24-0.294,3.697,3.766,6.542c0.3,0.212,0.608,0.403,0.921,0.579
						c2.98,1.664,6.546,1.761,10.263,0.186c1.021-0.435,8.843-4.215,11.124-5.78c5.528-3.794,11.514-9.146,14.418-12.194
						c1.984-2.084,4.389-5.632,6.036-8.181c2.049-2.894,3.989-6.142,5.701-9.795c1.588,1.677,2.47,4.167,2.47,4.167
						c-0.037-0.27-0.482-4.098-2.791-5.52c-2.305-1.419-6.81,0.418-6.985,0.475c0,0,4.077-1.012,6.202-0.049
						c-5.339,6.201-15.406,14.809-20.3,16.502c-2.038,0.705-13.776,5.609-18.237,4.091c-3.976-1.351-9.204-6.737-11.963-11.163
						c-1.421-2.278-2.767-3.503-3.849-4.486c-0.916-0.831-1.579-1.436-1.876-2.324c-0.55-1.651,0.193-5.389,0.45-6.553
						c0.405,0.1,0.832,0.164,1.289,0.164c2.6,0,5.892-1.501,8.407-3.135c3.266-2.123,6.843-5.516,7.09-8.677
						c0.124-1.572-0.488-3.072-1.819-4.462c-2.13-2.222-0.226-6.489-2.785-7.071c1.51-0.448,4.208-1.296,5.858-2.092
						c2.125-1.021,5.847-2.985,6.915-4.651c1.479-2.306,2.46-4.867,2.627-7.672c0.134-2.26-0.684-4.44-0.684-4.44
						c0.038,0.399,0.052,0.8,0.067,1.198c-0.603-0.355-2.533,0.307-4.326,2.15c-2.079,2.138-2.51,3.945-2.319,5.422
						c0.196,1.539,2.022,3.277,3.331,3.699c-1.103,1.022-8.708,5.057-11.47,6.386c-1.078,0.519-2.848,1.129-4.42,1.629
						c0.134-1.868,6.007-8.229,7.435-9.81c0.676-0.744,1.51-1.457,2.246-2.086c0.799-0.682,1.488-1.272,1.897-1.813
						c1.402-1.854,2.281-3.868,3.295-6.199c0.309-0.706,0.629-1.44,0.979-2.204c0.981-2.143,3.477-2.865,5.325-2.328
						c1.896,0.552,3.871,3.275,3.871,3.275c-0.054-0.129-1.309-3.056-3.375-3.882c1.343-0.505,4.829-1.819,6.502-2.483
						c1.913-0.758,4.61-1.579,8.52-1.209c2.408,0.229,5.24,1.301,6.811,1.938c-0.68,0.287-2.27,0.555-2.27,0.555
						c0.027,0,4.25,0.049,6.849,0.354c1.393,0.161,6.319,1.008,11.155,5.056c3.604,3.017,7.002,7.165,7.919,8.314
						c-2.759-0.241-5.587-0.424-5.789-0.438c0,0,8.524,1.301,10.541,1.744c2.263,0.496,4.606,1.429,6.411,4.854
						c0.784,1.487,1.311,4.153,1.868,6.974c0.837,4.229,1.784,9.021,3.907,12.086c0,0-0.922-2.359-1.301-4.469
						c0.994,1.703,2.356,3.765,3.644,4.799 M26.715,123.444c0.016-0.114,0.13-0.206,0.247-0.195c0.6,0.068,1.322,0.324,1.883,0.619
						c0.083,0.041,0.126,0.136,0.101,0.225c-0.273,0.987-1.133,1.882-1.755,1.6C26.79,125.513,26.543,124.752,26.715,123.444z
						 M24.55,122.031c0.037-0.111,0.172-0.175,0.28-0.13c0.504,0.205,1.09,0.611,1.565,1.027c-0.04,0.25-0.124,0.776-0.129,1.337
						c-0.254,0.228-0.999,0.672-1.514,0.471C24.368,124.588,24.188,123.126,24.55,122.031z M22.853,120.633
						c0.041-0.088,0.148-0.14,0.235-0.095c0.415,0.209,0.824,0.57,1.154,0.98l-0.019,0.075c-0.065,0.247-0.242,0.979-0.276,1.718
						c-0.304,0.116-0.891,0.275-1.308-0.041C22.075,122.843,22.489,121.444,22.853,120.633z M22.064,122.081
						c-0.316,0.045-0.849,0.079-1.141-0.141c-0.411-0.308-0.019-1.528,0.543-2.552c0.043-0.082,0.156-0.118,0.242-0.069
						c0.342,0.181,0.653,0.516,0.947,0.93C22.468,120.69,22.188,121.412,22.064,122.081z M21.862,116.321
						c0.442,0.101,0.579,2.154,0.575,3.106c-0.273-0.27-0.552-0.468-0.848-0.536c-0.088-0.022-0.255,0.029-0.296,0.103
						c-0.226,0.41-0.516,0.959-0.702,1.491c-0.258,0.055-0.738,0.098-0.941-0.34C19.303,119.394,21.376,116.211,21.862,116.321z
						 M22.888,124.874c-3.972-2.782-3.83-4.171-3.751-4.788c0.021,0.293,0.151,0.53,0.377,0.683c0.022,0.018,0.046,0.03,0.07,0.045
						c0.314,0.175,0.658,0.13,0.887,0.069c-0.131,0.541-0.11,1.026,0.251,1.286c0.404,0.287,0.896,0.229,1.302,0.173
						c-0.063,0.521-0.005,0.98,0.301,1.207c0.053,0.038,0.104,0.071,0.157,0.099c0.521,0.292,1.077,0.174,1.459,0.018
						c0.014,0.608,0.152,1.17,0.57,1.403c0.031,0.017,0.067,0.032,0.104,0.048c0.662,0.258,1.269-0.012,1.675-0.297
						c0.057,0.529,0.223,1.012,0.61,1.229c0.04,0.022,0.084,0.044,0.129,0.061c0.781,0.284,1.538-0.387,2.022-1.049
						c0.104,0.521,0.432,1.075,0.858,1.414c0.025,0.017,0.048,0.031,0.075,0.05C27.381,126.868,24.961,126.324,22.888,124.874z
						 M32.543,125.062c-0.105,0.69-0.724,1.242-1.86,1.351c-0.138-0.028-0.266-0.107-0.36-0.18
						c-0.375-0.296-0.813-1.103-0.813-1.523c-0.002-0.634,1.516-3.573,2.146-3.411C32.286,121.462,32.73,123.843,32.543,125.062z
						 M44.513,119.691c-0.429,0.281-8.265,4.913-11.567,6.072c0.713-0.266,10.678-6.15,12.025-8.651
						c1.129-2.094,4.688-5.576,7.591-7.132c1.89-1.013,4.339-2.04,6.494-2.845C55.897,110.348,49.462,116.46,44.513,119.691z
						 M34.943,51.423c-0.143-2.999,2.86-6.309,5.42-6.413c0.313-0.015,0.533,0.052,0.684,0.122c0.017,3.588-0.893,7.148-2.651,9.889
						c-0.072,0.11-0.174,0.231-0.28,0.353C37.298,55.034,35.058,53.884,34.943,51.423z M12.906,92.106
						c-0.63,0.506-1.546,1.501-2.338,2.328c-0.826,0.863-2.185,2.283-2.653,2.4c-0.474-1.238-2.514-9.552-2.069-12.581
						c0.347-2.362,2.131-6.3,2.943-8.009c0.171,1.445,0.487,2.913,0.95,4.206c0.853,2.387,2.101,3.981,3.617,4.656
						C13.104,86.239,12.292,90.214,12.906,92.106z M28.497,69.75c1.177,1.23,1.721,2.536,1.616,3.89
						c-0.187,2.382-2.838,5.567-6.755,8.11c-3.715,2.414-7.426,3.509-9.446,2.794c-1.818-0.645-2.893-2.717-3.473-4.343
						c-1.358-3.797-2.379-12.101,5.16-12.865c2.993-0.304,7.19-4.646,8.56-4.694C26.094,62.568,25.794,66.93,28.497,69.75z"/>
					<path fill="#381000" d="M56.314,102.188c0,0,6.052-4.55,8.204-6.746c2.155-2.193,5.833-6.098,5.833-6.098l0.36,0.197
						c0,0-1.759,3.887-3.311,6.558c-1.553,2.671-5.357,8.083-6.419,9.496C60.982,105.596,59.056,102.225,56.314,102.188z"/>
					<path fill="#381000" d="M72.76,85.463c-2.211-1.515-5.275-1.594-5.275-1.594s3.107-0.229,5.564,1.304
						c1.486,0.928,2.507,4.065,2.507,4.065S74.35,86.551,72.76,85.463z"/>
				</g>
			</g>
			<path fill="#424141" d="M82.154,62.222c1.35-3.533-0.62-8.189,0.842-11.573c1.509-3.49,5.22-4.376,7.55-6.882
				c9.851-10.6,10.303-9.731,17.723-21.401c1.051,19.825,8.588,24.415,6.078,44.454c-0.938,7.482-16.79,29.269-26.061,19.166"/>
			<path fill="#C5A771" d="M82.154,62.222c1.35-3.533-0.62-8.189,0.842-11.573c1.509-3.49,4.682,3.221,7.012,0.714
				c9.853-10.6,8.248-5.489,15.669-17.16c1.05,19.825,6.286,20.506,3.776,40.545c-0.938,7.483-11.896,21.341-21.167,11.238"/>
			<path fill="#424141" d="M77.081,106.976"/>
			<path fill="#424141" d="M26.215,62.31c2.452,0.558,0.546,4.77,2.71,7.03c1.303,1.354,1.9,2.817,1.78,4.344
				c-0.244,3.11-3.788,6.464-7.023,8.565c-3,1.948-6.111,3.111-8.327,3.111c-0.405,0-0.817-0.053-1.255-0.159l-0.147-0.038
				l-0.033,0.148c-0.246,1.127-1.009,4.936-0.443,6.633c0.308,0.926,0.98,1.538,1.916,2.39c1.075,0.978,2.413,2.193,3.822,4.453
				c2.772,4.448,8.033,9.863,12.042,11.227c1.051,0.357,2.277,0.538,3.643,0.538c0.001,0,0,0,0.001,0
				c3.743,0,13.209-4.121,14.688-4.633c4.907-1.695,14.977-10.285,20.365-16.544l0.13-0.149l0.834,0.693l-0.105,0.224
				c-1.439,3.069-5.562,9.321-7.707,12.482c-3.656,5.392-10.847,11.974-16.654,16.21c-3.948,2.881-13.702,7.993-17.007,8.244
				c-5.621,0.427-9.026-3.445-9.986-4.965c-1.01-1.6-0.844-2.323-0.384-3.218c0.412-0.802,2.878-4.222,4.306-6.263
				c1.429-2.039,2.726-4.881,2.726-4.881l-1.625-1.633c-0.337,1.377-1.682,4.239-2.437,5.638c-0.755,1.401-3.525,5.198-4.387,6.462
				c-0.859,1.264-1.357,1.283-1.864,3.561c-0.338,1.516,0.503,3.573,2.061,5.127c1.454,1.451,5.316,3.854,8.899,4.477
				c3.583,0.62,8.117-1.865,8.117-1.865c2.085-1.207,9.612-5.359,11.558-6.732c1.738-1.049,3.908-2.469,6.045-3.87
				c0.144-0.093,0.296-0.193,0.454-0.294c1.329-0.762,2.513-1.379,2.513-1.379s0.543-0.365,1.395-1.097
				c1.78-1.097,3.489-2.103,4.373-2.513c1.739-0.807,12.279-25.443,10.312-27.087C14.321,132.165,26.215,62.31,26.215,62.31z"/>
			<path fill="#424141" d="M41.183,44.595"/>
			<path fill="#A17C72" d="M93.651,66.055c0.031-5.509,0.273-9.4,3.215-13.793c2.497-3.729,6.794-6.235,6.709-11.326
				c1.688,5.714,13.517,41.829-2.107,37.268c-2.974-4.745-5.462-9.303-8.584-13.681"/>
			<g>
				<g>
					<path fill="#424141" d="M85.546,54.331c0.005,8.292,0.524,15.49,5.212,22.569c0.204,0.308,0.702,0.02,0.496-0.29
						c-4.629-6.989-5.129-14.126-5.133-22.279C86.121,53.96,85.546,53.96,85.546,54.331L85.546,54.331z"/>
				</g>
			</g>
			<g>
				<g>
					<path fill="#424141" d="M85.536,49.657c-0.21-1.159-0.082-2.299,0.781-3.163c0.896-0.897,2.345-1.059,3.542-1.075
						c0.371-0.005,0.371-0.58,0-0.575c-1.472,0.02-2.998,0.293-4.076,1.372c-0.946,0.946-1.025,2.352-0.801,3.593
						C85.047,50.174,85.602,50.02,85.536,49.657L85.536,49.657z"/>
				</g>
			</g>
			<g>
				<g>
					<path fill="#424141" d="M48.712,36.655c2.239-4.313,5.209-8.183,7.406-12.519c0.752-1.485,2.214-4.533,2.058-5.614
						c0.458,3.154,0.985,6.298,1.508,9.442c0.061,0.365,0.615,0.21,0.555-0.152c-0.606-3.638-1.194-7.277-1.724-10.926
						c-0.042-0.286-0.496-0.265-0.555,0c-1.656,7.415-6.327,12.894-9.744,19.479C48.045,36.693,48.541,36.984,48.712,36.655
						L48.712,36.655z"/>
				</g>
			</g>
		</g>
		<g>
			<g>
				<g>
					<path fill="#261954" d="M40.715,66.079c-3.662-1.221-14.342-1.221-14.342-1.221s-6-1.627-1.118-13.629
						c4.881-12.002,12.38-10.13,12.38-10.13S86.08,55.298,86.08,59.162c0,3.866,2.441,2.339,1.424,6.306
						c-1.017,3.968-6.103,7.528-6.103,7.528s-4.068,4.577-11.087,4.17c-7.019-0.407-14.748-3.19-14.748-3.19
						S44.376,67.299,40.715,66.079z M79.874,57.384c-2.135-4.426-33.26-14.494-42.413-13.58c-3.723-0.61-8.85,6.408-8.85,6.408
						s-4.339,11.955,1.764,10.734c6.104-1.221,9.845-0.01,17.357,2.285c7.019,3.051,8.341,6.814,14.139,7.73
						c5.797,0.914,13.731,2.441,18.003-6.408C79.874,64.554,82.011,61.807,79.874,57.384z"/>
					<path fill="#FB867A" stroke="#050F28" stroke-width="0.6103" stroke-miterlimit="10" d="M83.639,66.385
						c-7.833,8.646-13.548,8.071-20.398,6.991c-6.851-1.084-10.672-5.113-18.966-8.721c-8.876-2.709-9.216-2.663-16.428-1.22
						c-7.211,1.441-0.863-14.343-0.863-14.343s5.771-8.673,10.17-7.953c10.817-1.08,45.695,8.354,47.361,16.189
						C84.756,59.568,86.163,63.14,83.639,66.385z M79.874,57.384c-2.135-4.426-33.26-14.494-42.413-13.58
						c-3.723-0.61-8.85,6.408-8.85,6.408s-4.339,11.955,1.764,10.734c6.104-1.221,9.845-0.01,17.357,2.285
						c7.019,3.051,8.341,6.814,14.139,7.73c5.797,0.914,13.731,2.441,18.003-6.408C79.874,64.554,82.011,61.807,79.874,57.384z"/>
				</g>
				<path fill="#261954" d="M73.663,76.381l31.728,14.978c0,0,1.141-2.269,0-4.95c-19-4.019-26.861-11.726-26.861-11.726
					L73.663,76.381z"/>
			</g>
			<path opacity="0.3" fill="#FFFFFF" d="M79.874,57.384c-2.135-4.426-33.26-14.494-42.413-13.58c-3.723-0.61-8.85,6.408-8.85,6.408
				s-4.339,11.955,1.764,10.734c6.104-1.221,9.845-0.01,17.357,2.285c7.019,3.051,8.341,6.814,14.139,7.73
				c5.797,0.914,13.731,2.441,18.003-6.408C79.874,64.554,82.011,61.807,79.874,57.384z"/>
		</g>
	</g>
</g>
</svg>
